<?xml version="1.0" standalone="no"?>
<!DOCTYPE svg PUBLIC "-//W3C//DTD SVG 20010904//EN"
 "http://www.w3.org/TR/2001/REC-SVG-20010904/DTD/svg10.dtd">
<svg version="1.0" xmlns="http://www.w3.org/2000/svg"
 width="224.000000pt" height="224.000000pt" viewBox="0 0 224.000000 224.000000"
 preserveAspectRatio="xMidYMid meet">
  <metadata>
    Created by potrace 1.10, written by Peter Selinger 2001-2011
  </metadata>
  <g transform="translate(0.000000,224.000000) scale(0.100000,-0.100000)"
  fill="#000000" stroke="none">
    <path d="M570 2161 c-8 -5 -18 -7 -23 -4 -4 3 -16 -1 -25 -9 -9 -8 -29 -20
-44 -28 -16 -7 -28 -20 -28 -27 0 -7 -7 -16 -15 -19 -34 -14 -5 -82 50 -116
16 -10 22 -18 13 -16 -9 2 -17 0 -18 -4 -1 -10 -46 -55 -66 -66 -11 -6 -13
-12 -6 -16 6 -4 26 6 43 22 30 26 36 28 71 19 20 -5 49 -20 63 -33 28 -26 45
-24 45 5 0 22 -23 43 -80 71 -129 64 -134 133 -14 190 52 24 82 26 91 5 3 -9
20 -23 37 -32 47 -24 64 -63 29 -63 -17 -1 -17 -1 0 -11 9 -5 17 -19 17 -30 0
-16 -2 -18 -14 -7 -8 7 -11 17 -8 22 3 5 -2 6 -12 3 -11 -5 -15 -3 -10 5 5 8
2 9 -9 5 -31 -12 -17 8 15 22 18 8 27 16 21 18 -7 3 -21 0 -32 -6 -24 -13 -65
0 -98 31 -21 20 -43 18 -43 -5 0 -7 33 -30 72 -51 87 -47 118 -77 118 -110 0
-48 -21 -74 -90 -110 l-66 -35 -20 20 c-25 24 -111 52 -119 38 -4 -5 0 -9 9
-9 21 0 110 -39 103 -46 -3 -3 -16 0 -29 6 -19 10 -21 10 -11 0 28 -30 123 -8
201 47 21 15 22 15 22 -13 0 -19 3 -25 10 -18 17 17 9 300 -8 296 -19 -4 -73
31 -68 44 2 6 -1 11 -7 12 -7 0 -21 3 -32 6 -11 4 -27 2 -35 -3z m-27 -240
c10 -7 17 -11 17 -7 0 4 11 -1 25 -10 42 -28 28 -33 -22 -8 -25 13 -52 24 -59
24 -7 0 -15 4 -18 8 -8 13 40 8 57 -7z"/>
    <path d="M697 2154 c-3 -4 1 -13 9 -22 13 -13 21 -13 48 -4 18 7 35 12 38 12
4 0 5 -80 3 -177 l-3 -177 -41 1 c-23 1 -41 -3 -41 -8 0 -6 21 -9 48 -7 43 3
47 5 50 31 3 24 22 40 22 18 0 -9 61 -51 73 -51 3 0 13 7 22 17 14 13 18 14
25 3 5 -9 8 0 6 24 -2 24 -11 42 -25 52 -26 19 -27 36 -2 51 16 10 18 8 19
-17 1 -32 25 -74 62 -107 30 -27 43 -28 60 -8 11 13 15 13 21 3 6 -9 9 -7 9 7
0 16 2 17 10 5 6 -9 5 -20 -3 -29 -9 -12 -9 -13 1 -7 8 5 12 -2 12 -25 0 -30
2 -31 30 -26 26 6 30 4 28 -16 0 -12 5 -35 12 -52 7 -16 13 -33 12 -37 -1 -4
5 -5 13 -2 10 4 15 0 15 -12 0 -16 2 -16 9 -5 7 11 1 25 -20 48 -34 39 -36 61
-10 94 10 13 16 29 14 35 -8 23 62 12 90 -14 39 -37 37 -84 -4 -123 -26 -24
-28 -29 -12 -29 10 0 24 9 31 21 10 15 16 18 26 10 8 -6 21 -9 30 -5 9 4 16 1
16 -6 0 -9 7 -8 24 4 19 12 27 13 32 3 4 -6 4 -9 -1 -5 -15 14 -34 -25 -23
-45 8 -16 7 -18 -10 -13 -12 4 -22 1 -25 -7 -3 -8 1 -13 12 -12 27 2 41 15 41
38 0 21 4 22 73 21 39 -1 81 -5 92 -9 16 -6 17 -5 5 4 -13 9 -11 12 8 17 15 4
21 12 18 21 -3 8 -6 35 -6 59 0 26 -4 43 -9 39 -6 -3 -7 -28 -4 -56 5 -46 4
-51 -13 -47 -16 3 -19 13 -21 65 -1 53 1 62 18 66 10 3 19 1 19 -3 0 -4 9 -6
20 -3 18 5 20 0 20 -55 0 -33 -5 -73 -10 -88 -8 -19 -7 -31 2 -43 11 -14 11
-14 -4 -3 -12 9 -18 10 -23 2 -11 -18 1 -23 61 -22 43 0 54 -3 50 -14 -3 -8 1
-14 8 -14 8 0 13 8 12 18 -2 9 12 30 32 48 35 30 35 31 34 110 -2 75 -8 198
-16 292 -3 38 -2 41 13 30 10 -8 8 -4 -4 10 -11 13 -21 19 -23 12 -2 -6 -12
-1 -23 12 -21 23 -49 33 -49 16 0 -6 -7 -7 -16 -4 -10 4 -13 2 -8 -6 5 -7 2
-9 -9 -5 -11 4 -14 2 -10 -9 3 -8 -1 -14 -9 -14 -8 0 -20 -11 -26 -25 -12 -25
-32 -34 -32 -14 0 5 6 7 13 3 10 -6 10 -4 0 7 -7 7 -13 21 -13 30 0 31 -27 43
-68 31 -30 -9 -38 -9 -44 3 -7 12 -14 12 -46 1 -21 -8 -45 -10 -57 -5 -19 7
-18 10 4 13 5 0 13 5 18 10 5 5 2 6 -6 1 -11 -6 -13 -3 -9 13 4 12 2 23 -3 23
-18 3 -24 4 -34 10 -37 20 -86 -30 -59 -61 16 -19 2 -46 -17 -35 -10 7 -8 10
6 15 17 6 17 7 2 13 -10 4 -17 2 -17 -5 0 -7 -5 -6 -15 2 -12 10 -21 10 -41 1
-33 -14 -47 -14 -41 2 3 7 -6 13 -24 14 -16 1 -29 -2 -29 -8 0 -6 -5 -7 -12
-3 -6 4 -8 3 -5 -3 4 -6 -1 -14 -10 -18 -10 -3 -19 -1 -21 5 -2 5 -12 15 -23
20 -15 9 -26 4 -58 -26 -38 -34 -69 -38 -57 -8 11 30 -4 40 -59 39 -29 0 -56
-3 -60 -6 -3 -4 6 -5 21 -3 25 2 25 2 9 -16 -14 -15 -22 -17 -37 -9 -10 5 -18
15 -17 22 1 7 1 30 0 53 -1 44 -10 48 -61 26 -19 -8 -28 -7 -36 4 -6 7 -14 11
-17 8z m703 -51 c6 -6 -31 -33 -44 -33 -6 0 -17 4 -25 9 -24 16 5 42 38 34 14
-3 28 -8 31 -10z m-462 -78 c12 -19 22 -41 22 -48 0 -8 -19 -30 -42 -51 -27
-22 -39 -39 -32 -44 6 -4 23 -17 39 -29 l27 -23 -23 -20 c-32 -26 -43 -25 -71
9 -42 49 -53 87 -39 130 12 32 76 111 91 111 3 0 15 -16 28 -35z m150 -4 c12
-21 22 -42 22 -46 0 -5 -19 -25 -42 -46 l-41 -39 29 -22 c16 -13 39 -24 52
-25 l24 -2 -4 99 c-4 95 -3 99 19 111 21 11 25 10 39 -9 l15 -22 30 21 c17 12
32 20 33 18 2 -2 14 -24 26 -48 17 -35 21 -56 18 -99 -4 -46 -10 -59 -41 -88
-20 -19 -43 -34 -51 -34 -9 0 -16 -8 -16 -20 0 -16 -43 -50 -65 -50 -3 0 -5
22 -5 48 0 64 -15 78 -49 46 -34 -32 -44 -31 -79 12 -37 44 -47 92 -30 132 17
39 68 102 83 102 6 0 21 -17 33 -39z m307 9 c11 -21 15 -60 15 -138 l0 -109
-40 0 -40 0 1 109 c0 61 -2 113 -5 116 -7 6 33 52 45 52 5 0 15 -13 24 -30z
m110 13 c12 -16 24 -14 58 9 29 21 42 -15 42 -117 0 -49 4 -97 8 -106 6 -11 0
-21 -18 -33 -44 -29 -54 -9 -57 107 -2 69 -7 102 -15 105 -10 3 -13 -23 -13
-110 l0 -113 -45 -2 c-25 -1 -45 3 -45 8 0 6 5 7 11 3 8 -5 10 29 8 118 -4
117 -3 126 16 135 29 15 37 15 50 -4z m272 -15 c28 -31 30 -38 33 -123 1 -49
4 -132 7 -183 l4 -93 -32 -30 c-27 -25 -39 -29 -73 -27 -33 2 -41 7 -41 23 0
17 6 20 34 17 18 -1 40 3 47 9 19 16 18 147 -1 173 -14 19 -15 19 -35 1 -19
-18 -21 -18 -41 1 -32 29 -49 69 -49 115 0 36 6 48 53 95 28 30 54 54 58 54 3
0 19 -15 36 -32z m-662 -134 c0 -19 -6 -36 -14 -39 -8 -3 -11 0 -8 9 4 10 1
13 -7 10 -9 -4 -13 3 -13 20 0 19 5 26 19 26 12 0 17 4 12 13 -4 7 -3 8 2 4 5
-5 9 -24 9 -43z m205 -88 c0 -14 5 -28 10 -31 6 -3 10 -11 10 -18 0 -6 -12 1
-26 16 -14 15 -29 25 -35 22 -13 -9 -11 3 4 20 19 22 37 18 37 -9z m330 -16
c0 -22 -1 -23 -24 -14 -13 5 -14 9 -5 20 16 20 29 17 29 -6z m108 -46 c0 -14
-3 -22 -7 -18 -7 11 -41 15 -41 5 0 -4 9 -14 20 -24 24 -20 25 -40 4 -61 -12
-12 -20 -13 -35 -5 -24 12 -14 33 12 26 17 -5 16 -1 -6 25 -30 36 -31 40 -5
63 17 15 22 16 37 4 15 -12 16 -12 10 4 -4 10 -3 16 2 13 5 -3 9 -17 9 -32z
m-377 -16 c1 -24 1 -49 0 -55 -1 -7 3 -13 9 -13 6 0 10 23 10 55 0 42 3 55 15
55 12 0 15 -14 15 -66 0 -60 -2 -66 -19 -61 -10 2 -26 0 -35 -5 -18 -10 -18
-10 -18 62 0 67 0 70 12 70 6 0 11 -19 11 -42z m123 16 c4 -9 1 -23 -5 -30 -6
-7 -8 -18 -4 -23 4 -7 -1 -8 -12 -4 -17 6 -17 5 0 -14 23 -26 22 -35 -5 -31
-32 4 -46 59 -24 93 19 29 41 33 50 9z m71 -5 c4 -13 0 -27 -11 -40 -17 -18
-17 -20 0 -32 15 -11 16 -15 4 -25 -24 -19 -63 28 -53 65 13 53 48 72 60 32z"/>
    <path d="M867 1994 c-9 -9 -9 -58 0 -67 8 -9 33 12 33 27 0 18 -25 48 -33 40z"/>
    <path d="M1017 1994 c-10 -10 -9 -74 1 -74 5 0 16 8 25 18 14 16 14 19 -2 40
-9 13 -20 20 -24 16z"/>
    <path d="M1200 1921 c0 -64 3 -83 15 -88 23 -8 28 1 32 60 4 53 -11 97 -34
105 -10 3 -13 -17 -13 -77z"/>
    <path d="M1691 1978 c-11 -34 -5 -73 18 -117 21 -38 26 -22 21 61 -5 88 -21
111 -39 56z"/>
    <path d="M1236 1734 c-3 -9 -6 -21 -6 -27 0 -18 55 -79 63 -71 14 14 6 62 -14
88 -24 30 -34 33 -43 10z"/>
    <path d="M865 1600 c3 -5 30 -10 59 -10 49 0 55 -3 84 -39 17 -21 45 -63 63
-92 29 -50 30 -57 24 -118 -4 -35 -9 -71 -12 -79 -5 -11 4 -13 51 -7 31 4 56
4 56 0 0 -4 -13 -32 -30 -62 -31 -56 -36 -73 -22 -73 5 0 15 18 22 40 7 22 16
40 21 40 4 0 14 -17 22 -37 11 -29 12 -40 2 -49 -6 -7 -18 -26 -24 -43 -7 -16
-20 -32 -29 -34 -10 -2 13 -3 50 -1 57 2 68 -1 73 -16 3 -10 12 -24 20 -30 12
-10 15 -9 15 6 0 32 -16 47 -56 53 -34 6 -39 10 -36 31 8 66 6 114 -5 117 -7
3 -9 11 -6 19 3 8 2 25 -1 39 -5 19 -13 25 -34 25 -41 0 -55 14 -50 48 3 19 0
29 -5 25 -6 -4 -8 12 -5 40 4 34 1 50 -9 59 -8 6 -23 29 -34 50 -11 21 -24 38
-30 38 -6 0 -9 7 -5 15 3 9 0 15 -9 15 -18 0 -20 19 -2 21 23 3 -78 18 -121
18 -26 1 -41 -3 -37 -9z"/>
    <path d="M1330 1596 c0 -18 -23 -27 -41 -15 -8 5 -20 9 -28 9 -11 0 -11 -3 -1
-15 7 -8 16 -12 21 -9 5 3 9 1 9 -4 0 -6 16 -12 35 -14 19 -2 35 0 35 4 0 4
-7 8 -16 8 -8 0 -13 4 -10 9 9 13 42 6 38 -9 -1 -6 2 -9 8 -5 6 3 8 10 5 15
-3 4 0 10 7 12 14 5 2 28 -15 28 -7 0 -6 -4 3 -10 8 -5 13 -10 10 -11 -3 0
-13 -2 -22 -4 -10 -2 -18 3 -18 11 0 8 -4 14 -10 14 -5 0 -10 -6 -10 -14z"/>
    <path d="M913 1562 c18 -19 13 -58 -10 -80 -15 -15 -17 -32 -4 -32 4 0 13 -15
19 -32 10 -33 10 -33 11 15 1 30 6 47 14 48 24 3 42 -3 57 -17 12 -11 12 -14
0 -14 -7 0 -10 -3 -6 -7 4 -4 -8 -15 -26 -26 -30 -17 -23 -17 18 0 13 5 15 2
9 -15 -4 -13 -2 -22 4 -22 6 0 11 12 11 27 0 14 7 34 15 44 15 15 14 17 -9 23
-18 4 -24 11 -19 22 5 13 2 14 -13 7 -10 -6 -25 -8 -31 -6 -15 6 -17 35 -3 49
6 6 -1 14 -21 21 -29 11 -30 11 -16 -5z"/>
    <path d="M1455 1557 c-4 -15 -5 -31 -1 -34 3 -3 1 -12 -5 -20 -13 -15 -1 -17
21 -3 12 7 12 12 3 21 -10 10 -9 17 5 33 9 11 12 16 5 13 -6 -4 -13 -1 -16 5
-2 7 -8 0 -12 -15z"/>
    <path d="M1520 1561 c0 -13 43 -22 51 -10 3 6 9 -1 11 -15 4 -22 2 -26 -16
-25 -11 1 -34 1 -51 0 -27 -2 -28 -3 -9 -11 12 -5 38 -5 58 0 20 4 36 4 36 -1
0 -8 151 -2 159 7 2 2 -32 4 -77 4 -47 0 -83 4 -83 10 -1 6 -3 15 -4 20 -1 6
-3 15 -4 20 -1 12 -71 13 -71 1z"/>
    <path d="M790 1549 c0 -5 -11 -21 -25 -35 -27 -27 -59 -83 -52 -90 3 -3 15 12
27 33 13 21 36 50 52 64 22 21 25 28 13 33 -8 3 -15 1 -15 -5z"/>
    <path d="M835 1520 c3 -5 1 -10 -4 -10 -6 0 -11 -7 -11 -16 0 -8 5 -12 10 -9
6 3 16 3 23 -2 24 -15 42 -11 20 4 -13 9 -23 22 -23 29 0 8 -5 14 -11 14 -5 0
-7 -4 -4 -10z"/>
    <path d="M1291 1509 c-11 -5 -21 -14 -20 -21 0 -8 2 -9 5 -2 3 7 30 10 74 7
40 -2 71 1 75 7 3 5 3 10 -2 11 -70 5 -114 4 -132 -2z"/>
    <path d="M820 1463 c0 -2 12 -8 26 -13 23 -9 26 -14 20 -42 -3 -18 -12 -36
-19 -40 -6 -4 -7 -8 -1 -8 20 0 34 25 34 61 0 33 -3 37 -30 41 -16 3 -30 3
-30 1z"/>
    <path d="M489 1423 c13 -27 14 -36 2 -29 -5 3 -12 -5 -15 -19 -4 -17 1 -37 19
-65 21 -34 23 -43 13 -60 -7 -10 -8 -23 -4 -27 5 -4 11 -2 14 6 10 28 40 50
63 44 14 -4 20 -2 16 4 -8 12 17 36 26 26 4 -3 7 -1 7 6 0 9 9 11 32 5 29 -6
31 -5 20 9 -9 10 -10 17 -2 22 5 3 10 13 10 22 0 14 -2 14 -19 -1 -18 -16 -19
-16 -25 10 -5 20 -10 24 -19 15 -16 -16 -47 -14 -47 4 0 19 -14 19 -29 1 -9
-11 -10 -20 -1 -35 14 -28 60 -28 67 -1 7 25 23 26 23 3 0 -27 -12 -41 -43
-48 -15 -4 -27 -11 -27 -16 0 -18 -29 -8 -49 17 -28 36 -26 50 9 86 17 16 30
30 30 31 0 1 -11 3 -25 3 -13 1 -24 -1 -23 -5 2 -20 -4 -22 -18 -5 -15 18 -15
18 -5 -3z"/>
    <path d="M844 1318 c-51 -53 -94 -117 -94 -139 0 -10 13 -28 29 -42 33 -28 69
-26 96 3 23 25 15 42 -20 46 -24 2 -27 1 -12 -7 26 -15 21 -29 -12 -29 -21 0
-30 6 -35 23 -9 33 -7 44 5 27 9 -13 10 -12 5 3 -7 21 3 49 15 42 5 -3 11 5
15 19 4 16 11 23 20 19 10 -4 12 0 8 11 -5 12 -2 15 12 9 12 -5 15 -3 9 6 -4
8 -2 17 6 22 23 14 57 10 68 -8 7 -12 10 -14 11 -4 0 11 3 11 16 0 14 -12 14
-14 -3 -20 -15 -6 -15 -8 -1 -8 13 -1 16 -12 17 -61 0 -33 -3 -59 -7 -57 -4 1
-9 -2 -11 -8 -2 -5 -11 -15 -19 -21 -9 -7 -12 -16 -7 -24 5 -8 3 -11 -6 -8
-18 6 -25 48 -8 48 7 0 10 2 7 5 -14 15 -39 -12 -54 -58 -9 -29 -27 -66 -40
-84 -23 -30 -23 -33 -7 -42 17 -9 17 -10 1 -16 -24 -10 -23 -25 2 -25 11 0 20
-4 20 -10 0 -5 5 -10 10 -10 6 0 10 7 10 15 0 32 32 10 44 -32 6 -18 1 -23
-29 -33 -20 -7 -42 -9 -49 -7 -9 4 -15 -4 -18 -23 -2 -16 -1 -27 4 -24 10 6
50 -15 64 -34 9 -13 15 -10 35 17 13 18 39 40 58 48 34 17 34 16 62 -14 29
-33 39 -33 39 1 1 12 9 36 19 55 17 31 17 36 3 65 -9 17 -18 54 -20 83 -3 39
-8 50 -18 46 -19 -7 -17 3 15 72 16 33 27 62 25 64 -9 10 -34 -11 -34 -28 0
-26 -17 -36 -35 -21 -20 16 -19 6 0 -14 14 -14 14 -19 -5 -55 -24 -48 -25 -58
-4 -40 14 11 15 10 12 -11 -2 -21 -9 -26 -42 -28 -21 -2 -36 0 -34 5 2 4 12
25 23 45 20 41 14 63 -10 32 -14 -18 -14 -18 -15 9 0 22 4 27 26 27 25 0 26 0
19 63 -7 68 -20 136 -28 143 -3 3 -29 8 -58 11 -53 5 -55 4 -95 -39z m121
-283 c-8 -20 -10 -33 -4 -29 7 4 10 -1 7 -12 -3 -17 -58 -40 -58 -24 0 5 9 25
21 44 20 35 15 48 -9 24 -9 -9 -12 -7 -12 10 0 18 6 22 35 22 l35 0 -15 -35z
m131 -66 c14 -46 9 -122 -7 -97 -8 12 -13 4 -10 -16 1 -5 -5 -4 -13 4 -9 7
-16 9 -16 4 0 -5 -4 -3 -8 4 -11 16 -53 2 -93 -32 -25 -21 -32 -23 -53 -13
l-25 12 36 12 c19 7 39 10 44 7 5 -3 6 2 3 11 -5 11 -2 14 12 9 17 -6 17 -5 3
7 -27 24 -28 45 -4 71 13 14 21 29 17 33 -4 4 0 6 8 4 23 -5 70 10 70 22 0 26
24 -1 36 -42z"/>
    <path d="M710 1213 c0 -13 -3 -14 -12 -5 -7 7 -16 12 -22 12 -5 0 -6 -3 -3 -7
10 -9 -41 -33 -58 -26 -11 4 -13 1 -8 -13 4 -12 3 -15 -5 -10 -7 4 -12 2 -12
-3 0 -6 9 -11 19 -11 11 0 23 -5 26 -10 12 -19 25 1 14 21 -9 19 -9 19 10 10
27 -15 34 -14 27 5 -4 12 -2 15 9 10 8 -3 15 -1 15 4 0 5 6 10 14 12 12 3 12
5 0 16 -12 11 -14 10 -14 -5z"/>
    <path d="M520 1174 c0 -6 9 -23 20 -37 11 -14 20 -29 20 -34 0 -5 5 -14 12
-21 15 -15 20 -49 8 -57 -5 -3 -23 18 -40 47 -34 59 -80 121 -60 81 6 -13 7
-23 3 -23 -4 0 0 -5 10 -11 19 -11 23 -39 6 -39 -6 0 -9 -6 -6 -14 4 -10 -3
-17 -23 -21 -16 -4 -28 -12 -27 -18 1 -7 -8 -11 -23 -9 -19 1 -21 0 -10 -7 12
-8 12 -13 -4 -30 -34 -37 -2 -22 42 20 38 36 47 40 76 35 19 -4 37 -13 40 -22
3 -8 2 -12 -3 -9 -5 3 -12 2 -15 -3 -3 -5 -20 -7 -38 -5 -29 3 -30 2 -10 -7
12 -5 22 -14 22 -20 0 -7 -6 -8 -19 0 -27 14 -28 13 -35 -14 -3 -14 -15 -28
-26 -31 -11 -3 -20 -13 -20 -21 0 -28 -19 -13 -23 19 -3 28 -4 27 -5 -10 -2
-32 4 -48 23 -69 20 -21 28 -25 37 -16 9 9 9 12 0 12 -16 0 -33 35 -26 54 7
19 50 21 61 4 4 -7 6 -22 4 -33 -4 -26 15 -8 22 20 3 14 5 11 6 -10 1 -26 3
-28 14 -14 7 8 25 15 42 14 31 -2 38 -14 60 -110 5 -19 9 -25 13 -15 3 8 13
26 23 39 11 14 19 40 19 62 l0 39 -52 0 c-58 1 -149 29 -156 48 -2 7 5 12 18
12 23 0 57 16 76 35 18 18 42 69 37 81 -2 6 14 21 36 32 59 31 81 46 81 55 0
4 -11 0 -25 -9 -14 -9 -25 -13 -25 -10 0 4 -15 -4 -33 -18 -19 -15 -42 -26
-53 -26 -18 1 -18 1 -1 11 19 11 24 39 6 39 -5 0 -7 -4 -4 -10 16 -26 -27 -6
-49 23 -14 17 -26 27 -26 21z"/>
    <path d="M780 1101 c0 -5 -9 -13 -21 -16 -15 -5 -18 -10 -10 -18 8 -8 17 -6
32 10 14 13 17 23 10 27 -6 4 -11 3 -11 -3z"/>
    <path d="M671 1016 c-7 -8 -19 -12 -28 -9 -11 4 -14 2 -11 -8 3 -8 11 -14 19
-14 8 0 20 -4 28 -9 10 -7 12 -5 6 4 -4 7 -3 15 3 19 6 4 7 12 3 19 -6 10 -10
10 -20 -2z"/>
    <path d="M1385 998 c-22 -11 -42 -24 -45 -28 -3 -4 -14 -9 -24 -11 -11 -2 -31
-26 -46 -54 -15 -27 -33 -50 -40 -50 -7 0 -18 15 -25 34 l-11 34 -13 -34 c-27
-73 -41 -99 -53 -100 -21 -1 25 -18 50 -18 29 -1 106 73 98 94 -3 9 0 12 8 9
8 -3 25 13 42 39 16 25 44 55 62 67 29 20 36 21 57 10 14 -7 25 -19 25 -26 0
-7 4 -14 8 -16 4 -1 17 -17 29 -34 l22 -30 -45 -47 c-43 -46 -54 -51 -104 -47
-36 3 -43 13 -22 36 10 10 19 22 19 27 4 25 11 30 37 23 19 -5 26 -11 22 -21
-21 -51 -21 -51 -3 -36 11 9 17 28 17 56 l0 43 -39 -10 c-32 -8 -52 -25 -100
-84 -34 -40 -61 -76 -61 -79 0 -3 10 -5 23 -5 12 0 43 -7 70 -15 26 -8 54 -12
62 -9 8 4 15 1 15 -5 0 -6 11 -16 25 -21 30 -12 32 -26 4 -35 -11 -4 -18 -9
-15 -13 4 -3 19 4 34 15 15 11 37 23 48 27 15 4 21 15 21 34 0 56 7 118 14
132 4 8 13 29 19 46 27 73 88 99 108 47 20 -53 23 -88 8 -118 -18 -38 -33
-117 -17 -95 6 8 11 24 11 36 0 24 81 114 103 114 8 0 18 8 22 18 5 14 9 11
21 -17 19 -45 18 -68 -6 -93 -21 -23 -27 -58 -10 -58 18 0 52 93 46 128 -5 34
-45 80 -55 64 -11 -15 -40 -21 -45 -9 -2 7 -5 5 -5 -4 -1 -9 -10 -19 -21 -22
-17 -4 -20 0 -20 26 -1 43 -28 73 -72 79 -20 2 -35 1 -32 -3 2 -4 -5 -10 -16
-14 -11 -3 -19 -9 -19 -13 4 -22 -3 -31 -18 -25 -12 5 -15 2 -11 -9 4 -8 1
-15 -8 -15 -7 0 -10 5 -7 10 4 6 1 7 -7 2 -10 -6 -12 -3 -8 13 4 15 2 19 -8
15 -8 -3 -14 0 -14 7 0 12 -50 61 -60 59 -3 -1 -23 -10 -45 -21z m-162 -168
c3 -13 -1 -24 -12 -29 -24 -13 -41 1 -34 27 7 28 39 29 46 2z m289 -66 c-3
-25 -10 -38 -23 -41 -10 -3 -16 -9 -13 -14 10 -17 -16 -9 -33 10 -9 11 -22 17
-29 14 -9 -3 -14 2 -14 16 0 22 29 30 31 9 0 -8 3 -7 6 2 9 25 57 59 69 50 5
-5 8 -26 6 -46z m-172 17 c7 -11 17 -18 22 -15 4 3 8 -2 8 -10 0 -9 -1 -16 -2
-16 -13 1 -80 29 -70 30 6 0 12 7 12 15 0 21 13 19 30 -4z"/>
    <path d="M1607 898 c-37 -78 -46 -181 -22 -233 10 -20 14 -24 12 -10 -1 11 3
26 8 34 5 9 5 16 -2 18 -15 5 -7 102 12 147 8 20 12 36 8 36 -4 0 -2 5 5 12 8
8 15 8 28 -3 14 -12 16 -11 13 6 -3 11 -14 21 -25 23 -16 2 -25 -6 -37 -30z"/>
    <path d="M766 883 c-3 -4 -6 -15 -6 -25 0 -23 -17 -24 -22 0 -3 16 -48 -139
-48 -166 0 -9 12 -12 37 -10 29 2 38 8 40 23 2 11 0 14 -3 8 -3 -7 -16 -13
-29 -13 -20 0 -23 4 -19 28 7 39 36 75 70 87 16 5 30 10 32 11 1 1 -2 12 -7
26 -10 25 -34 42 -45 31z"/>
    <path d="M1766 825 c-10 -7 -15 -18 -11 -24 3 -6 0 -9 -7 -6 -16 6 -52 -38
-62 -75 l-8 -25 19 26 c32 46 102 111 113 104 5 -3 10 -1 10 4 0 15 -32 13
-54 -4z"/>
    <path d="M499 828 c-7 -24 -5 -38 7 -38 8 0 14 -10 14 -25 0 -14 5 -25 10 -25
13 0 13 4 -2 51 -6 22 -15 39 -20 39 -4 0 -8 -1 -9 -2z"/>
    <path d="M943 731 c-26 -27 -64 -74 -83 -104 -33 -53 -38 -56 -106 -76 -40
-12 -78 -21 -84 -21 -7 0 -32 14 -57 30 -24 17 -46 30 -49 30 -2 0 -4 -16 -4
-35 0 -19 5 -35 11 -35 6 0 9 7 5 15 -4 12 5 11 48 -6 49 -18 58 -18 114 -5
69 16 141 62 142 89 0 11 9 21 19 24 13 3 18 11 14 21 -4 10 -3 14 2 10 4 -4
14 -3 21 3 10 8 11 1 7 -29 -3 -24 -1 -42 6 -46 6 -4 11 -16 11 -26 0 -10 6
-20 13 -23 9 -3 9 -7 0 -17 -9 -10 -9 -19 -2 -33 8 -13 8 -17 1 -13 -6 3 -13
2 -17 -4 -3 -5 -2 -10 4 -10 5 0 7 -13 5 -30 -5 -26 -2 -30 17 -30 33 0 102
-58 140 -117 35 -53 55 -68 46 -34 -4 18 2 19 114 20 101 1 119 -1 119 -14 0
-9 12 -20 26 -25 35 -14 57 -13 48 2 -4 7 -3 8 5 4 6 -4 9 -11 7 -15 -3 -4 -1
-13 4 -21 11 -18 -6 -50 -26 -50 -8 0 -17 7 -20 15 -4 8 -11 12 -16 9 -6 -4
-5 -10 3 -16 11 -7 9 -8 -4 -4 -10 3 -24 6 -31 6 -7 0 -21 8 -32 18 -42 39
-78 62 -93 62 -12 -1 -11 -4 5 -13 34 -20 84 -65 84 -76 0 -7 30 -11 80 -11
50 0 80 4 80 11 0 5 -5 7 -11 3 -8 -5 -9 -2 -2 10 10 18 -20 126 -38 137 -6 3
-3 12 6 19 32 26 75 128 75 177 0 12 8 24 18 26 11 3 8 5 -9 6 -23 1 -28 -4
-34 -36 -10 -55 -38 -103 -88 -150 -38 -36 -44 -39 -42 -20 1 12 3 33 4 46 1
21 4 23 32 17 26 -5 30 -3 25 10 -3 9 -6 36 -6 60 0 42 -1 44 -24 38 -13 -3
-27 -1 -30 5 -4 6 -6 11 -4 12 2 0 30 3 63 5 75 7 85 14 18 14 -37 0 -50 4
-50 15 0 8 4 12 9 9 4 -3 8 2 8 10 0 16 16 21 57 17 12 -1 24 3 28 9 4 6 23 7
47 3 30 -4 39 -3 34 5 -4 7 -3 12 3 12 5 0 13 -5 16 -10 4 -6 12 -10 18 -9 28
3 37 -2 38 -23 1 -18 3 -17 8 7 4 17 6 33 4 38 -5 8 -135 8 -213 -1 -54 -7
-56 -8 -77 -54 -15 -31 -24 -69 -25 -114 -3 -63 -5 -68 -33 -84 -45 -25 -125
-49 -170 -50 -58 -3 -65 -1 -65 13 0 6 -13 26 -29 43 -26 27 -30 41 -38 120
-5 59 -12 89 -20 90 -7 1 -25 2 -39 3 -26 1 -27 2 -21 51 8 68 13 73 57 66 36
-6 38 -5 43 27 6 42 2 47 -38 47 -28 0 -43 -9 -82 -49z m82 -185 c0 -10 -9
-22 -21 -26 -18 -7 -20 -5 -16 22 3 20 9 28 21 26 9 -2 16 -12 16 -22z m5 -67
c0 -12 -7 -19 -20 -19 -22 0 -29 35 -7 43 18 6 27 -2 27 -24z m405 -19 c9 -15
-4 -50 -20 -50 -16 0 -29 35 -20 50 3 5 12 10 20 10 8 0 17 -5 20 -10z m-57
-146 c-2 -8 -6 -15 -10 -15 -5 1 -19 1 -33 1 -16 0 -25 6 -25 15 0 11 11 15
36 15 27 0 35 -4 32 -16z m95 -28 c7 -17 -11 -36 -34 -36 -27 0 -34 21 -14 37
24 17 41 17 48 -1z"/>
    <path d="M1116 747 c5 -15 13 -18 37 -13 16 3 38 6 49 6 10 0 17 4 14 9 -3 4
-23 5 -45 1 -25 -4 -44 -3 -51 4 -8 8 -9 6 -4 -7z"/>
    <path d="M549 734 c-1 -5 -2 -15 -3 -22 0 -7 -6 -16 -12 -20 -15 -10 -26 -70
-14 -77 6 -3 10 5 10 18 0 13 11 37 25 53 13 15 21 31 17 34 -4 3 -10 9 -14
14 -5 6 -8 6 -9 0z"/>
    <path d="M605 706 c-10 -19 -16 -38 -13 -42 8 -7 40 54 36 68 -2 5 -12 -6 -23
-26z"/>
    <path d="M1084 654 c-23 -46 -27 -61 -15 -55 15 9 58 108 50 115 -2 2 -18 -25
-35 -60z"/>
    <path d="M1775 709 c4 -5 -10 -26 -30 -46 -49 -48 -40 -51 13 -5 43 39 53 62
26 62 -8 0 -12 -5 -9 -11z"/>
    <path d="M785 699 c-4 -5 -4 -21 -1 -35 8 -29 2 -32 -74 -38 -40 -3 -60 0 -72
11 -9 8 -23 13 -30 10 -8 -4 -7 -6 5 -6 9 -1 17 -8 17 -16 0 -16 45 -20 113
-9 39 7 97 52 97 76 -1 8 -4 7 -11 -4 -14 -26 -42 -24 -34 2 7 21 1 27 -10 9z"/>
    <path d="M1035 670 c10 -16 -14 -40 -39 -40 -17 0 -18 -2 -6 -10 20 -13 26
-12 44 6 18 17 22 54 5 54 -5 0 -7 -5 -4 -10z"/>
    <path d="M551 433 c-3 -82 -21 -127 -61 -157 -40 -30 -54 -53 -24 -42 9 3 18
6 20 6 2 0 4 6 4 13 0 7 34 33 75 58 41 24 69 46 63 48 -7 2 -21 8 -30 13 -12
5 -18 5 -18 -2 0 -5 8 -10 18 -10 14 0 15 -2 2 -10 -9 -6 -19 -5 -29 3 -12 10
-14 8 -9 -10 4 -13 2 -23 -3 -23 -11 0 -12 57 -1 62 4 2 4 21 1 43 -6 37 -6
38 -8 8z"/>
    <path d="M885 449 c-4 -6 -20 -9 -39 -6 -17 3 -25 3 -18 0 6 -2 12 -14 12 -25
0 -14 5 -18 16 -14 9 3 18 6 20 6 2 0 4 7 4 15 0 8 5 15 10 15 6 0 10 -7 10
-15 0 -8 9 -15 20 -15 11 0 20 7 20 15 0 8 5 15 11 15 5 0 7 5 4 10 -5 8 -11
7 -21 -1 -11 -9 -17 -9 -28 0 -11 9 -16 9 -21 0z"/>
    <path d="M791 417 c-6 -15 -10 -35 -9 -45 4 -47 -5 -73 -32 -100 -29 -30 -29
-30 -7 -36 35 -9 37 -8 53 31 11 25 14 50 9 81 -5 30 -3 47 5 52 9 6 9 13 2
26 -10 18 -11 17 -21 -9z"/>
    <path d="M734 405 c3 -8 1 -15 -3 -15 -5 0 -12 6 -14 13 -4 9 -6 9 -6 0 -1
-17 16 -25 40 -18 16 5 18 10 8 21 -15 19 -33 18 -25 -1z"/>
    <path d="M652 368 c-2 -18 -9 -42 -17 -54 -12 -19 -12 -22 10 -32 23 -10 25
-9 31 23 3 19 4 42 0 50 -4 10 1 15 16 15 17 0 19 2 8 15 -11 13 -15 13 -21 3
-7 -10 -9 -10 -9 0 0 27 -16 10 -18 -20z"/>
    <path d="M546 257 c5 -13 44 -41 44 -31 0 3 -5 14 -10 25 -12 21 -42 27 -34 6z"/>
    <path d="M636 212 c-3 -5 9 -12 27 -15 50 -7 54 6 6 18 -15 4 -30 2 -33 -3z"/>
    <path d="M422 168 c-9 -9 -69 -12 -220 -11 -135 1 -190 -2 -157 -7 63 -10 360
-14 375 -5 6 4 32 -9 57 -29 51 -40 73 -43 126 -21 19 8 36 13 38 12 2 -1 3 0
1 3 -2 2 14 10 35 16 24 8 30 12 17 13 -27 1 -85 -18 -105 -35 -21 -19 -44
-18 -76 3 -37 24 -72 61 -65 67 3 3 1 6 -4 6 -6 0 -15 -5 -22 -12z"/>
    <path d="M740 160 c-11 -11 -20 -28 -20 -37 0 -14 3 -13 16 5 18 26 36 29 27
5 -6 -16 -4 -16 16 2 l22 19 -7 -28 -7 -28 27 23 27 23 -33 18 c-42 22 -44 22
-68 -2z"/>
    <path d="M1805 162 c-22 -2 -44 -7 -49 -12 -5 -5 -1 -7 10 -5 10 2 120 6 242
9 123 2 227 7 230 11 6 6 -349 3 -433 -3z"/>
    <path d="M857 143 c-3 -5 50 -7 116 -5 228 5 252 8 70 10 -100 1 -184 -1 -186
-5z"/>
    <path d="M998 123 c23 -2 61 -2 85 0 23 2 4 4 -43 4 -47 0 -66 -2 -42 -4z"/>
  </g>
</svg>
