<?xml version="1.0" standalone="no"?>
<!DOCTYPE svg PUBLIC "-//W3C//DTD SVG 20010904//EN"
 "http://www.w3.org/TR/2001/REC-SVG-20010904/DTD/svg10.dtd">
<svg version="1.0" xmlns="http://www.w3.org/2000/svg"
 width="225.000000pt" height="225.000000pt" viewBox="0 0 225.000000 225.000000"
 preserveAspectRatio="xMidYMid meet">
  <metadata>
    Created by potrace 1.10, written by Peter Selinger 2001-2011
  </metadata>
  <g transform="translate(0.000000,225.000000) scale(0.100000,-0.100000)"
  fill="#000000" stroke="none">
    <path d="M1723 2193 c-57 -2 -94 -8 -100 -16 -10 -15 5 -636 16 -657 7 -13 39
-14 212 -12 139 3 207 7 214 15 17 19 3 640 -14 661 -14 17 -67 18 -328 9z
m215 -23 c37 0 73 -4 79 -8 9 -6 14 -58 18 -172 2 -91 7 -193 11 -227 3 -34 2
-67 -2 -75 -15 -24 -14 -48 2 -48 8 0 12 -5 9 -11 -4 -6 -13 -8 -21 -5 -11 4
-13 -1 -8 -19 5 -21 3 -25 -15 -25 -12 0 -21 -6 -21 -15 0 -8 5 -15 11 -15 5
0 7 5 3 11 -4 7 -1 10 7 7 8 -3 14 -10 14 -17 0 -9 -46 -13 -182 -14 -99 -1
-179 1 -176 6 2 4 -2 7 -9 7 -9 0 -9 3 2 10 11 8 12 12 3 18 -31 20 13 27 165
28 102 1 167 5 174 12 7 7 -1 9 -31 5 -26 -4 -41 -2 -41 5 0 7 -21 9 -62 6
-155 -14 -218 -15 -218 -6 0 6 4 12 8 14 5 2 5 39 1 83 -12 123 -17 387 -7
373 6 -8 7 -1 3 19 -7 37 3 46 57 49 28 2 38 -1 38 -12 0 -8 -4 -12 -10 -9 -5
3 -10 1 -10 -4 0 -18 18 -13 29 8 7 11 19 17 34 16 13 -2 30 1 38 6 8 5 20 7
27 4 8 -3 44 -5 80 -5z"/>
    <path d="M1690 2150 c0 -6 -4 -8 -10 -5 -6 4 -10 -11 -10 -37 0 -24 4 -38 8
-33 7 10 27 17 49 18 6 0 9 7 6 15 -5 11 -7 11 -15 0 -7 -9 -9 -8 -5 7 2 11
-2 26 -10 33 -8 8 -13 9 -13 2z"/>
    <path d="M1811 2088 c-10 -26 -7 -33 8 -23 6 3 9 11 6 16 -4 5 -1 9 4 9 6 0
11 -4 11 -10 0 -5 7 -10 16 -10 19 0 10 16 -17 30 -16 9 -21 7 -28 -12z"/>
    <path d="M1817 2038 c-41 -30 -35 -88 8 -72 21 9 13 30 -11 27 -10 -1 -13 0
-6 3 6 3 12 12 12 19 0 17 40 27 59 14 13 -9 13 -10 -3 -5 -16 5 -17 4 -7 -8
7 -8 10 -20 6 -26 -4 -7 2 -6 14 2 23 14 26 25 12 47 -14 21 -54 21 -84 -1z"/>
    <path d="M1698 2021 c11 -7 11 -9 -2 -14 -9 -4 -16 -12 -16 -19 0 -10 2 -10 9
1 5 7 14 10 20 7 18 -12 12 -26 -11 -26 -16 0 -19 -3 -11 -11 16 -16 43 -3 43
21 0 11 -4 20 -10 20 -5 0 -7 7 -4 15 4 10 0 15 -12 15 -14 0 -16 -2 -6 -9z"/>
    <path d="M1808 1930 c-26 -29 -58 -40 -58 -19 0 5 -4 7 -10 4 -16 -10 -12 -38
5 -31 17 6 17 7 19 -89 1 -51 8 -81 24 -110 18 -33 21 -36 19 -15 -1 14 -8 31
-15 39 -8 8 -12 25 -9 37 2 13 0 21 -4 18 -5 -3 -9 6 -9 19 0 40 12 87 20 82
5 -3 7 3 6 12 -3 19 21 49 31 39 3 -3 11 -1 18 4 30 25 107 -53 85 -85 -13
-19 -29 -76 -20 -70 6 4 10 12 10 20 0 7 7 16 16 19 12 5 15 2 9 -11 -4 -10
-9 -25 -12 -33 -4 -13 -4 -13 6 0 8 12 11 8 11 -18 0 -18 -4 -31 -9 -28 -5 3
-9 -10 -9 -30 0 -27 3 -33 11 -25 16 16 21 144 8 182 -12 34 -6 53 8 30 7 -11
11 -9 20 8 11 19 9 21 -13 21 -14 0 -41 14 -61 32 -30 26 -38 29 -46 17 -6
-10 -9 -10 -9 -1 0 20 -14 14 -42 -18z"/>
    <path d="M1863 1780 c0 -41 2 -58 4 -37 2 20 2 54 0 75 -2 20 -4 3 -4 -38z"/>
    <path d="M1325 2180 c-88 -3 -166 -9 -173 -13 -10 -7 -11 -73 -7 -320 4 -172
8 -322 11 -334 4 -23 6 -23 174 -23 139 0 170 3 170 14 0 19 28 28 48 16 14
-8 13 -10 -8 -11 -23 -1 -23 -2 5 -8 58 -14 58 -16 51 314 -4 165 -9 313 -12
328 -6 30 -38 49 -77 45 -12 -1 -94 -4 -182 -8z m-49 -68 c-1 -30 -5 -37 -21
-37 -14 0 -22 9 -26 30 -5 25 -14 18 -10 -7 0 -5 -7 -8 -16 -9 -15 0 -15 -2 2
-9 17 -7 16 -9 -9 -9 -28 -1 -28 0 -13 17 22 24 23 49 1 28 -21 -22 -27 -20
-14 5 9 15 18 19 41 15 25 -4 29 -2 24 12 -5 14 -4 15 6 5 19 -19 33 -15 18 5
-12 15 -12 16 2 4 10 -7 16 -26 15 -50z m231 33 c7 10 14 11 41 6 4 0 6 -16 4
-35 -2 -19 1 -50 7 -68 12 -36 18 -429 7 -447 -4 -5 -14 -7 -23 -4 -12 5 -14
3 -9 -8 6 -11 4 -10 -6 1 -9 10 -32 15 -73 15 -51 0 -64 4 -86 25 l-27 26 -23
-24 c-16 -16 -29 -22 -45 -18 -13 4 -26 1 -29 -5 -4 -6 -14 -8 -22 -5 -8 3
-11 1 -8 -4 3 -6 2 -10 -4 -10 -5 0 -8 -18 -6 -40 2 -32 0 -39 -9 -31 -17 14
-19 81 -3 81 7 0 6 4 -3 10 -13 8 -15 43 -15 209 l-1 200 23 -1 c14 -2 19 -6
13 -13 -13 -16 -7 -82 8 -82 14 0 17 33 3 41 -15 10 19 66 45 76 24 10 27 19
24 76 -1 29 1 32 34 36 20 2 36 1 36 -2 0 -3 21 -7 47 -8 48 -2 64 -8 48 -20
-12 -9 -15 -52 -3 -52 8 0 12 15 9 38 -1 6 3 12 9 12 6 0 8 11 4 28 -6 26 -6
26 10 7 10 -13 18 -16 23 -10z m-265 -105 c-10 -13 -24 -16 -46 -13 -35 6 -48
13 -22 13 9 0 15 3 13 8 -3 4 12 8 33 8 34 1 36 0 22 -16z m344 -469 c0 -17
-3 -28 -8 -25 -4 3 -8 0 -8 -5 0 -7 -7 -7 -20 1 -21 13 -21 13 5 36 14 12 27
22 29 22 1 0 2 -13 2 -29z m-68 -10 l2 -30 -150 -3 -150 -3 0 33 0 32 148 0
148 0 2 -29z"/>
    <path d="M1246 2123 c-12 -12 -6 -43 9 -43 8 0 15 9 15 19 0 21 -13 34 -24 24z"/>
    <path d="M1481 2098 c-11 -31 9 -53 27 -30 12 15 13 13 8 -18 -3 -19 -3 -29 0
-22 3 6 12 12 20 12 8 0 14 5 14 11 0 5 -4 7 -10 4 -5 -3 -10 3 -10 14 0 24
-10 27 -28 9 -9 -9 -12 -8 -12 5 0 9 5 17 10 17 6 0 10 5 10 10 0 19 -21 10
-29 -12z"/>
    <path d="M1288 1978 c-16 -5 -28 -17 -28 -26 0 -12 3 -13 12 -4 7 7 23 12 36
12 13 0 21 4 17 9 -3 5 5 12 17 14 22 4 21 4 -2 5 -14 0 -37 -4 -52 -10z"/>
    <path d="M1255 1890 c3 -41 2 -43 -11 -26 -8 11 -14 16 -14 11 0 -5 7 -16 16
-26 12 -14 13 -22 4 -38 -7 -14 -7 -21 0 -21 5 0 10 8 11 18 0 13 2 12 9 -5 5
-13 12 -23 15 -23 4 0 3 5 0 10 -3 6 -1 10 6 10 7 0 5 9 -5 26 -10 14 -21 44
-26 67 l-9 42 4 -45z"/>
    <path d="M1412 1870 c-16 -26 -15 -29 6 -27 11 0 18 8 17 19 -2 27 -9 29 -23
8z"/>
    <path d="M1321 1793 c-6 -12 -5 -26 5 -45 13 -26 13 -28 -9 -43 -13 -8 -29
-26 -35 -39 -10 -22 -9 -24 10 -21 31 6 46 24 41 46 -4 15 -2 18 13 12 13 -5
16 -3 11 10 -3 9 -2 17 3 17 6 0 10 5 10 10 0 6 -7 10 -15 10 -14 0 -20 17
-16 48 3 17 -6 15 -18 -5z"/>
    <path d="M1359 1784 c-10 -13 -10 -17 1 -24 17 -10 30 -4 30 15 0 22 -16 26
-31 9z"/>
    <path d="M1365 1690 c-4 -6 -11 -7 -17 -4 -6 4 -6 -1 1 -14 17 -31 41 -36 41
-7 0 26 -15 41 -25 25z"/>
    <path d="M318 2170 c-76 -3 -143 -11 -149 -17 -13 -13 -15 -172 -5 -438 8
-217 10 -225 52 -225 18 0 20 6 20 45 l-1 45 37 0 c20 0 39 -6 41 -12 3 -8 6
-5 6 5 1 10 6 15 11 12 6 -4 8 -10 6 -14 -3 -4 1 -8 9 -8 11 0 12 4 4 14 -9
11 5 13 80 13 l91 0 1 -37 c1 -21 1 -41 0 -45 0 -5 7 -8 16 -8 9 0 13 3 10 7
-4 3 -2 12 4 20 9 9 8 17 0 27 -9 11 -9 15 1 19 23 8 -5 26 -49 31 -23 2 -46
7 -52 10 -6 4 -11 2 -11 -3 0 -6 -7 -11 -16 -11 -11 0 -14 6 -8 23 9 30 11 32
29 17 8 -7 15 -9 15 -5 0 4 8 1 17 -6 15 -12 16 -12 11 7 -4 17 -2 20 13 17
15 -4 19 0 19 21 0 21 -5 26 -22 25 -17 -1 -19 -2 -5 -6 9 -2 17 -11 17 -19 0
-8 -5 -12 -10 -9 -6 4 -17 2 -24 -4 -19 -16 -45 -3 -52 24 -3 13 -4 46 -1 74
3 28 1 51 -5 51 -5 0 -8 -6 -7 -12 3 -29 -2 -49 -11 -43 -5 3 -10 2 -10 -4 0
-5 6 -12 13 -14 6 -3 2 -6 -10 -6 -21 -1 -23 4 -23 43 0 24 -3 51 -6 60 -11
28 12 17 24 -11 11 -26 11 -25 7 15 -3 23 -2 42 3 42 14 0 31 -22 26 -35 -6
-15 22 -40 30 -26 4 5 2 12 -3 16 -6 3 -8 12 -5 20 4 10 -3 18 -21 25 -21 8
-32 6 -54 -9 -26 -19 -27 -20 -24 -128 1 -65 -1 -102 -7 -94 -6 11 -12 12 -22
4 -21 -17 -51 0 -54 30 -3 26 12 34 49 28 5 -1 6 2 3 7 -6 10 -36 9 -54 -2 -6
-4 -12 -20 -12 -35 0 -22 6 -31 28 -39 15 -6 38 -9 52 -7 14 2 31 4 38 4 6 1
12 6 12 12 0 5 -4 8 -9 5 -5 -4 -4 5 2 19 7 14 17 25 22 26 6 0 1 4 -10 9 -19
8 -18 9 4 9 20 1 23 -3 19 -24 -3 -13 0 -27 6 -30 8 -3 7 -7 -1 -11 -7 -3 -13
-14 -13 -25 0 -10 -3 -18 -7 -18 -5 1 -12 0 -18 -1 -5 -2 -23 -4 -40 -5 -16
-1 -45 -5 -63 -9 -23 -4 -31 -3 -27 4 4 6 14 9 22 6 9 -4 13 -1 11 6 -3 7 -15
15 -29 18 -19 5 -24 13 -24 35 0 20 -6 31 -17 33 -16 3 -18 18 -19 130 -1 70
-1 135 0 144 1 10 -2 33 -8 53 -5 19 -6 33 -1 30 11 -7 20 19 13 44 -4 16 -1
21 13 21 14 0 16 -2 6 -9 -11 -6 -9 -9 5 -13 16 -4 18 0 15 21 l-3 26 155 3
c149 2 155 2 166 -18 9 -16 8 -25 -2 -38 -7 -9 -8 -13 -2 -9 8 4 13 -31 17
-115 9 -167 9 -246 -2 -252 -5 -3 -7 -16 -3 -29 5 -20 4 -21 -11 -8 -10 8 -17
9 -17 3 0 -6 5 -14 10 -17 8 -5 8 -11 1 -19 -8 -9 -7 -13 2 -14 6 0 22 -4 34
-7 l23 -7 -5 168 c-10 310 -14 377 -28 386 -13 8 -37 8 -249 -2z m-83 -567
c-4 -10 -8 -26 -11 -37 -4 -24 -14 -34 -14 -15 0 12 -2 11 -11 -1 -9 -13 -10
-12 -5 3 3 10 0 17 -7 18 -9 0 -9 2 1 6 6 2 10 9 6 14 -8 14 5 29 28 29 15 0
18 -4 13 -17z"/>
    <path d="M668 2163 c-10 -2 -21 -16 -24 -30 -4 -14 -4 -161 0 -327 6 -266 9
-303 24 -314 13 -11 56 -12 207 -7 105 4 194 11 198 15 9 8 10 647 1 662 -5 8
-374 10 -406 1z m342 -24 c0 -5 6 -9 14 -9 10 0 17 -15 20 -42 7 -48 11 -212
8 -303 -1 -33 0 -89 2 -125 4 -70 -5 -100 -31 -100 -13 0 -12 5 8 27 24 28 24
28 0 8 -17 -15 -22 -16 -21 -5 4 26 0 44 -7 36 -5 -4 -8 -13 -8 -18 0 -20 -25
-20 -26 -1 -1 16 -2 16 -6 1 -7 -27 -23 -22 -23 6 0 14 -4 27 -9 30 -4 3 -8
-6 -7 -21 1 -14 -5 -28 -11 -30 -9 -3 -13 9 -13 42 0 43 2 46 17 34 15 -13 15
-12 -1 12 -15 24 -15 27 -1 32 10 5 15 0 15 -13 0 -22 16 -35 25 -20 4 6 11 8
16 5 13 -9 11 -26 -2 -23 -6 2 -14 -3 -16 -9 -3 -8 4 -13 16 -13 29 0 37 26
16 50 -11 12 -13 20 -7 20 7 0 12 -4 12 -8 0 -5 6 -9 13 -9 10 0 13 23 12 88
0 48 -3 85 -7 82 -5 -2 -8 -20 -8 -39 0 -31 -2 -33 -18 -23 -28 18 -23 38 21
79 22 20 34 37 26 37 -8 0 -23 4 -34 8 -11 4 -16 3 -10 -2 16 -13 12 -37 -10
-53 -11 -8 -21 -12 -21 -10 -1 3 -11 -3 -23 -14 -22 -20 -20 -39 4 -29 8 3 15
0 15 -6 0 -6 -8 -11 -18 -11 -10 0 -29 -10 -42 -22 -24 -23 -24 -23 -3 -26 15
-2 19 -8 16 -22 -3 -11 -10 -17 -16 -13 -6 4 -7 1 -2 -7 5 -7 7 -40 6 -72 l-2
-60 58 3 c54 3 58 1 59 -19 2 -38 4 -42 15 -42 8 0 8 5 -1 15 -10 12 -10 15 3
15 20 0 31 -16 17 -25 -5 -3 -88 -7 -184 -8 -167 -2 -174 -1 -170 17 2 11 -1
25 -7 32 -5 7 -6 14 -2 17 13 8 123 -5 123 -14 0 -5 10 -9 23 -8 21 0 21 1 2
9 -16 7 -14 9 15 9 l35 1 -3 70 c-2 38 -8 70 -13 70 -6 0 -7 -4 -4 -10 6 -9
-8 -14 -28 -11 -5 1 -6 -3 -2 -8 3 -6 12 -8 20 -4 12 4 15 -5 15 -46 0 -28 -4
-51 -10 -51 -5 0 -10 15 -10 34 0 19 -4 38 -10 41 -17 11 -36 -17 -32 -47 3
-16 0 -28 -7 -28 -6 0 -11 9 -11 20 0 11 -4 20 -9 20 -5 0 -7 -9 -4 -20 3 -11
0 -20 -6 -20 -6 0 -11 10 -12 23 -1 21 -1 21 -9 -3 l-8 -25 -1 26 c-1 25 -31
64 -31 41 0 -6 5 -14 10 -17 6 -3 10 -14 10 -24 0 -14 -6 -17 -27 -13 -16 3
-22 7 -15 9 6 3 12 9 12 14 0 6 -4 8 -9 4 -5 -3 -9 14 -8 40 1 25 5 45 10 45
4 0 7 8 7 18 0 12 -2 14 -9 4 -4 -7 -7 57 -7 143 1 85 4 155 9 155 4 0 7 4 7
10 0 5 -6 8 -12 6 -7 -1 -10 -1 -5 1 4 3 8 23 8 46 1 23 4 32 6 20 5 -24 18
-30 28 -13 4 6 1 17 -5 25 -8 10 -9 15 -2 15 6 0 14 -4 17 -10 3 -5 15 -10 26
-10 11 0 18 4 14 9 -3 5 0 13 6 17 9 5 10 0 7 -14 -4 -12 -2 -22 4 -22 5 0 6
-5 2 -12 -6 -9 -9 -9 -12 0 -2 7 -13 12 -25 11 -21 0 -20 -1 3 -11 44 -19 48
-18 43 13 -4 28 -3 29 34 29 22 0 44 -5 51 -12 9 -9 12 -9 12 0 0 8 7 9 25 2
16 -6 27 -6 31 2 4 6 3 8 -3 5 -6 -4 -13 -1 -16 6 -3 9 7 11 39 8 24 -1 44 -7
44 -12z m-12 -377 c2 -6 -7 -16 -19 -22 -18 -10 -25 -9 -43 10 -21 21 -21 21
-2 36 17 12 23 12 40 1 11 -8 22 -19 24 -25z m-168 -142 c0 -16 -4 -30 -10
-30 -5 0 -10 14 -10 30 0 17 5 30 10 30 6 0 10 -13 10 -30z"/>
    <path d="M894 2112 c-12 -8 -44 -102 -35 -102 3 0 12 10 20 22 l13 21 17 -21
16 -22 12 25 c6 14 7 22 2 19 -16 -10 -49 7 -49 25 0 26 11 33 29 18 14 -11
14 -10 2 6 -7 9 -14 17 -15 17 0 0 -6 -4 -12 -8z"/>
    <path d="M702 2081 c-28 -17 6 -50 44 -43 30 6 31 18 2 17 -13 0 -23 5 -23 10
0 6 5 9 12 7 7 -2 13 2 13 8 0 12 -30 13 -48 1z"/>
    <path d="M717 2013 c-3 -5 -5 -28 -4 -53 0 -25 2 -35 4 -23 3 14 9 20 19 16
17 -6 19 -33 2 -33 -9 0 -8 -3 2 -9 16 -11 33 -4 25 9 -3 5 0 20 6 32 11 21
11 22 -5 9 -16 -13 -17 -12 -11 11 4 14 2 29 -3 32 -6 4 -8 -3 -5 -15 4 -16 2
-20 -8 -17 -8 3 -13 15 -12 27 3 21 -2 27 -10 14z"/>
    <path d="M850 1969 c0 -35 -10 -60 -20 -54 -5 3 -8 -4 -7 -15 1 -21 17 -29 17
-9 0 15 44 53 48 41 1 -5 -3 -22 -9 -38 -7 -16 -12 -32 -11 -35 1 -3 -10 -4
-23 -1 -14 2 -25 7 -25 11 0 4 -9 7 -20 8 -11 1 -18 -2 -15 -7 3 -5 1 -11 -4
-15 -5 -3 -14 3 -20 12 -9 16 -10 16 -11 2 0 -9 7 -22 15 -29 13 -10 19 -10
33 4 23 20 31 13 26 -24 -3 -15 0 -31 7 -35 8 -5 9 -1 4 15 -5 15 -4 20 4 16
6 -4 11 -19 12 -34 l1 -27 11 28 c6 15 15 27 20 27 4 0 6 4 3 9 -3 5 -15 7
-25 4 -10 -3 -22 0 -25 6 -5 7 3 11 18 11 14 0 26 5 26 11 0 6 9 9 20 6 14 -3
27 4 44 24 27 31 26 70 0 48 -16 -13 -19 -23 -4 -14 6 3 10 1 10 -4 0 -6 -7
-11 -15 -11 -9 0 -12 -6 -9 -15 4 -8 1 -15 -5 -15 -6 0 -11 5 -11 11 0 5 -4 7
-10 4 -5 -3 -10 -4 -10 -1 0 12 24 56 30 56 9 0 0 50 -9 51 -54 7 -61 4 -61
-22z"/>
    <path d="M750 1819 c0 -6 -6 -9 -13 -6 -9 3 -13 -5 -14 -27 0 -17 -3 -44 -8
-60 -6 -21 -5 -27 4 -22 7 5 11 0 11 -13 0 -31 58 -26 66 6 4 12 10 23 14 23
4 0 10 12 13 26 3 20 -1 28 -19 36 -13 6 -21 15 -18 20 3 4 10 5 16 2 7 -5 8
-2 4 5 -5 7 -10 10 -13 7 -3 -3 -14 -1 -24 5 -13 7 -19 6 -19 -2z m39 -80 c-7
-13 -12 -28 -11 -32 1 -5 -9 0 -22 10 -31 22 -32 34 -5 51 17 11 19 16 8 30
-7 9 0 5 15 -9 25 -24 27 -29 15 -50z"/>
    <path d="M690 1565 c6 -7 9 -17 8 -23 -2 -5 1 -10 7 -11 19 -2 11 42 -8 45
-14 2 -16 -1 -7 -11z"/>
    <path d="M329 2051 c-1 -6 -3 -15 -4 -21 -1 -5 -3 -15 -4 -21 0 -6 -10 -9 -21
-6 -11 3 -20 1 -20 -4 0 -5 7 -9 15 -9 9 0 15 -9 15 -25 0 -26 14 -33 26 -14
3 6 1 15 -7 20 -11 6 -10 14 4 43 10 21 12 38 7 41 -6 3 -11 1 -11 -4z"/>
    <path d="M350 2011 c0 -12 29 -23 41 -15 5 3 7 10 4 15 -8 12 -45 12 -45 0z"/>
    <path d="M387 1952 c-10 -10 -24 -19 -32 -20 -8 -1 -22 -3 -30 -4 -14 -1 -11
-12 3 -14 4 0 15 -4 24 -8 10 -5 26 -2 40 8 12 9 18 16 13 16 -6 0 -3 5 5 10
10 6 12 12 4 20 -7 7 -15 5 -27 -8z"/>
    <path d="M580 1573 c0 -22 -5 -44 -12 -51 -15 -15 -6 -24 16 -16 18 7 23 88 6
99 -6 4 -10 -9 -10 -32z"/>
    <path d="M430 1550 l-25 -7 30 -5 c17 -3 -4 -6 -45 -6 -52 -1 -70 1 -60 8 11
7 6 10 -20 9 -29 0 -31 -2 -15 -9 17 -7 15 -9 -12 -9 -17 -1 -35 -6 -39 -13
-5 -8 2 -9 26 -5 18 4 79 7 136 7 70 0 104 4 104 11 0 6 -9 9 -19 6 -14 -3
-18 -1 -14 9 6 15 -8 16 -47 4z"/>
    <path d="M317 1499 c20 -6 63 -6 110 -1 l78 9 -110 1 c-84 0 -102 -2 -78 -9z"/>
    <path d="M186 1444 c-14 -14 -16 -51 -10 -327 3 -172 7 -318 10 -325 3 -10 50
-12 211 -10 l208 3 -4 125 c-3 136 -14 164 -73 192 -15 7 -24 17 -20 23 3 5
-8 -5 -25 -22 -17 -18 -40 -33 -51 -33 -26 0 -62 45 -62 79 l-1 26 -14 -30
c-7 -16 -14 -27 -14 -23 -1 11 -41 -24 -41 -35 0 -5 12 -2 26 8 15 10 23 12
19 4 -6 -9 -3 -11 8 -6 10 3 17 2 17 -3 0 -6 -3 -11 -7 -11 -5 -1 -19 -3 -33
-4 -14 -2 -36 -8 -48 -12 -20 -8 -21 -11 -10 -21 11 -9 23 -7 53 8 42 21 85
23 92 2 4 -9 9 -10 18 -2 10 8 20 5 39 -13 14 -13 26 -28 26 -32 0 -5 6 -16
14 -24 16 -19 38 -81 28 -79 -4 1 -15 -2 -25 -7 -10 -4 -23 -2 -31 4 -10 8
-16 9 -21 1 -3 -5 -12 -10 -18 -10 -7 0 -4 5 5 11 10 5 15 16 12 24 -8 19 3
19 23 0 16 -17 33 -12 33 10 0 8 -6 12 -14 9 -9 -3 -17 3 -21 15 -3 12 -11 19
-16 15 -6 -3 -8 -9 -5 -12 11 -10 -47 -62 -70 -62 -13 0 -30 10 -38 22 -13 19
-16 20 -16 5 0 -17 -38 -39 -52 -30 -4 2 -5 -4 -1 -13 4 -10 8 -13 11 -6 2 7
11 8 25 3 12 -5 38 -7 57 -5 44 5 45 5 100 1 40 -4 45 -7 45 -28 0 -16 6 -25
20 -26 15 -2 16 -1 5 5 -22 10 -19 54 3 58 11 1 14 -2 10 -9 -13 -21 -12 -38
3 -44 12 -4 12 -8 -3 -18 -12 -9 -25 -10 -41 -4 -13 5 -34 9 -48 9 -13 0 -24
5 -24 10 0 6 -8 10 -17 10 -15 0 -16 -2 -3 -10 18 -12 19 -12 -97 -10 -57 1
-94 -3 -98 -10 -10 -17 -32 6 -31 32 2 35 13 46 41 40 24 -4 26 -2 23 24 -2
24 1 30 20 32 15 2 22 -2 22 -13 0 -9 5 -13 10 -10 6 4 8 11 5 16 -4 5 -1 9 4
9 6 0 11 6 11 14 0 11 -7 12 -34 4 -19 -6 -41 -8 -50 -5 -19 7 -21 38 -4 55
18 18 27 15 21 -7 -3 -12 2 -20 14 -23 22 -6 43 0 43 14 0 5 -9 6 -22 3 -16
-6 -20 -4 -15 8 3 9 -1 18 -11 23 -26 11 -42 13 -42 5 0 -4 -7 -16 -15 -27
-14 -18 -14 -18 -15 9 0 16 4 26 10 22 6 -3 10 -2 10 4 0 5 -4 11 -10 13 -5 2
-11 40 -12 86 -1 63 2 86 13 93 10 6 10 9 2 9 -7 0 -13 7 -13 15 0 8 6 15 13
15 8 0 8 3 1 8 -12 8 -19 102 -9 132 3 11 11 20 16 20 6 0 7 -4 4 -10 -3 -5 1
-10 10 -10 9 0 14 4 11 9 -3 4 25 8 63 8 38 0 74 3 80 7 7 5 11 -2 12 -16 1
-17 3 -18 6 -5 5 20 14 22 31 5 17 -17 15 -31 -3 -24 -14 5 -19 -5 -16 -32 2
-10 -2 -11 -18 -2 -14 7 -21 7 -21 0 0 -5 7 -10 15 -10 9 0 12 -6 9 -15 -4 -8
-11 -12 -17 -8 -7 4 -8 0 -3 -12 5 -14 3 -15 -6 -7 -15 12 -45 -8 -72 -51 -19
-28 -10 -37 13 -14 11 10 13 9 7 -3 -4 -8 -1 -7 7 3 10 12 17 14 22 8 3 -6 3
-11 -2 -11 -4 0 -1 -5 7 -10 9 -6 11 -10 3 -10 -7 0 -10 -7 -7 -15 4 -8 10
-13 14 -10 5 3 6 -5 2 -17 -5 -21 -4 -22 11 -9 13 10 17 10 17 1 0 -10 3 -10
15 0 12 10 15 10 15 0 0 -7 7 -10 15 -6 8 3 15 1 15 -4 0 -18 17 -10 28 13 6
12 11 16 11 10 1 -7 7 -13 15 -13 7 0 19 -7 26 -15 10 -12 10 -18 0 -31 -11
-12 -11 -15 0 -12 8 2 22 -13 32 -32 10 -19 18 -30 18 -25 1 6 0 95 0 200 -1
136 -4 191 -13 197 -7 4 -96 8 -199 8 -157 0 -189 -3 -202 -16z m314 -19 c14
0 31 -4 39 -10 11 -7 13 -7 7 3 -4 7 -2 12 7 12 15 0 30 -37 17 -42 -4 -2 -4
-26 -1 -55 4 -29 4 -50 -1 -47 -4 3 -8 0 -8 -7 0 -7 -6 -5 -13 6 -16 21 -37
12 -37 -16 0 -24 29 -37 40 -18 14 21 23 3 11 -20 -13 -24 -50 -36 -86 -27
-14 4 -25 2 -25 -2 0 -5 -11 -7 -25 -4 -27 5 -35 22 -9 22 8 0 12 5 9 10 -4 6
-10 8 -15 5 -10 -6 -40 34 -40 54 0 11 4 10 14 -4 11 -16 17 -17 29 -7 8 7 13
21 10 31 -3 12 6 31 26 52 35 36 37 44 15 53 -8 3 -12 11 -8 17 3 6 9 7 13 3
3 -5 17 -9 31 -9z m20 -359 c0 4 8 -3 19 -14 10 -12 21 -19 25 -15 6 6 10 -35
6 -72 -3 -28 -20 -44 -20 -19 0 11 -15 38 -33 60 -19 21 -32 45 -29 53 3 9 0
11 -8 6 -9 -5 -11 -4 -6 3 5 9 13 9 27 2 10 -6 19 -8 19 -4z"/>
    <path d="M512 1386 c-8 -18 -7 -28 3 -42 7 -11 17 -16 21 -11 4 4 3 7 -3 7 -7
0 -9 14 -6 35 5 41 1 45 -15 11z"/>
    <path d="M455 1343 c-10 -16 -14 -25 -10 -21 5 4 14 3 21 -3 14 -11 34 -4 34
12 0 6 -9 8 -20 4 -15 -5 -18 -3 -14 9 3 9 10 13 15 10 5 -3 9 0 9 5 0 20 -17
11 -35 -16z"/>
    <path d="M778 1453 c-78 -3 -109 -8 -118 -18 -10 -12 -10 -83 -1 -332 6 -174
15 -321 21 -327 10 -10 92 -10 123 0 9 3 15 10 12 15 -6 8 50 13 182 14 40 0
56 5 67 20 9 11 16 15 16 9 0 -5 -5 -15 -11 -21 -7 -7 -8 -17 -2 -28 9 -15 11
-15 26 -1 23 23 10 83 -27 128 -35 42 -59 53 -27 12 12 -15 21 -32 21 -40 0
-7 6 -14 13 -17 8 -3 6 -9 -8 -20 -11 -8 -22 -13 -25 -11 -2 3 2 9 9 13 16 10
6 32 -12 26 -22 -9 -36 10 -39 54 l-3 43 -27 -21 c-14 -12 -35 -21 -45 -21
-10 0 -24 -5 -30 -11 -8 -8 -13 -8 -17 0 -14 23 -36 11 -36 -19 0 -27 3 -30
33 -29 17 1 25 3 15 6 -9 2 -19 11 -22 19 -6 16 9 19 19 4 4 -6 11 -8 16 -5 5
4 9 1 9 -4 0 -6 5 -11 10 -11 6 0 10 10 10 23 0 16 3 18 9 8 7 -11 11 -10 20
5 9 17 10 17 11 2 0 -31 -1 -33 -15 -32 -8 1 -12 -2 -9 -7 3 -5 21 -9 40 -9
30 0 34 -3 34 -26 0 -19 -4 -25 -14 -21 -8 3 -29 2 -45 -3 -18 -5 -33 -5 -36
1 -4 5 -23 9 -43 8 -30 0 -33 -2 -17 -9 14 -6 -2 -9 -50 -9 -38 0 -77 4 -85 9
-8 5 -10 10 -3 10 16 0 9 31 -10 41 -10 6 -18 5 -23 -2 -4 -7 -3 -9 4 -5 6 3
13 2 16 -3 4 -5 2 -12 -4 -16 -6 -4 -8 -10 -5 -15 3 -5 0 -12 -6 -16 -7 -4 -9
-3 -5 4 3 6 2 13 -3 16 -5 4 -7 19 -3 34 3 15 5 43 4 62 0 19 4 38 11 43 8 6
6 7 -5 3 -14 -4 -18 0 -18 21 0 22 2 24 16 12 25 -20 62 -18 68 5 3 11 0 23
-6 27 -6 4 -7 12 -4 18 5 7 -1 10 -16 8 -19 -2 -23 3 -22 25 1 17 -3 25 -11
21 -7 -2 -16 1 -20 7 -3 6 -1 9 6 8 6 -2 14 3 16 10 3 7 -1 11 -9 10 -10 -2
-12 15 -10 81 2 60 -1 87 -10 93 -10 6 -10 8 -1 8 7 0 10 7 6 16 -5 13 -2 15
17 9 16 -5 21 -4 18 6 -3 8 -11 14 -19 14 -15 0 -29 14 -29 30 0 6 5 3 10 -5
6 -10 10 -11 10 -2 0 6 9 12 20 12 11 0 20 5 20 11 0 8 6 7 17 -2 13 -11 17
-11 20 -1 3 6 13 12 23 12 10 0 21 -6 23 -12 4 -10 8 -9 16 2 8 12 13 12 23 2
17 -17 28 -15 28 6 0 14 2 15 10 2 5 -8 10 -11 10 -7 0 4 9 3 19 -2 14 -8 20
-7 24 2 3 8 20 11 51 9 39 -3 46 -7 47 -26 0 -20 1 -20 8 -1 6 13 9 -5 9 -50
0 -41 -3 -62 -7 -51 -5 14 -10 16 -15 8 -4 -7 -16 -12 -28 -12 -20 0 -20 0 2
-18 22 -18 22 -19 5 -45 -9 -15 -24 -27 -31 -27 -8 0 -14 -10 -14 -26 0 -20
-4 -24 -19 -19 -11 3 -22 1 -26 -4 -4 -7 -14 -7 -30 -1 -28 11 -33 -1 -10 -20
13 -10 19 -9 35 5 26 23 39 11 16 -14 -19 -21 -15 -51 9 -71 29 -24 43 4 37
76 -4 52 -2 65 9 64 8 -2 22 -2 33 -1 15 1 16 4 6 16 -10 12 -9 16 6 21 11 4
22 8 25 10 3 2 5 -45 3 -104 -1 -70 2 -109 9 -114 6 -4 8 -10 5 -13 -4 -4 -17
9 -30 29 -13 20 -29 36 -36 36 -10 0 -9 -4 2 -16 9 -8 16 -24 16 -35 0 -10 7
-19 15 -19 8 0 16 -6 16 -12 1 -7 3 -20 3 -28 2 -19 27 -70 35 -70 3 0 3 60 0
132 -4 73 -7 191 -8 261 -1 71 -6 137 -11 148 -11 20 -9 20 -302 12z m190
-343 c0 -16 -3 -32 -8 -35 -12 -7 -24 40 -15 54 12 20 22 11 23 -19z m-266
-23 c-14 -16 1 -42 24 -42 9 0 18 -7 19 -16 3 -20 -23 -19 -35 0 -4 8 -12 11
-18 7 -5 -3 -12 1 -16 9 -3 8 0 15 7 16 9 0 9 2 0 6 -10 3 -10 7 0 18 15 18
33 20 19 2z m63 -297 c-22 -4 -47 -4 -55 1 -10 5 5 8 40 8 55 -1 55 -1 15 -9z"/>
    <path d="M1176 1444 c-14 -13 -16 -58 -16 -334 0 -250 3 -321 13 -332 10 -10
59 -12 219 -10 203 3 206 3 212 25 3 12 5 160 6 329 0 268 -2 308 -15 322 -24
24 -396 24 -419 0z m308 -15 c10 16 26 4 20 -14 -3 -7 -1 -22 5 -32 10 -15 11
-14 9 11 -4 35 12 43 38 19 18 -17 19 -33 18 -232 -1 -196 -2 -215 -19 -227
-18 -13 -17 -14 6 -14 24 0 25 -3 23 -57 -1 -32 -2 -61 -3 -65 0 -4 -15 -5
-31 -1 -25 4 -29 3 -24 -10 3 -8 1 -18 -5 -22 -7 -3 -8 0 -5 9 5 13 -13 15
-122 14 -70 0 -141 -4 -158 -9 -21 -6 -32 -5 -37 3 -9 14 -2 28 12 28 6 0 7
-4 4 -10 -3 -5 -2 -10 4 -10 6 0 9 13 7 29 l-3 29 158 -2 c87 -1 162 -6 166
-10 4 -4 2 -6 -6 -4 -7 2 -16 -3 -18 -10 -4 -11 2 -11 46 -3 2 1 -2 7 -8 14
-6 8 -8 17 -5 20 4 4 -2 5 -13 3 -29 -6 -78 36 -70 59 6 14 10 15 22 5 8 -6
20 -10 27 -7 8 3 6 6 -6 6 -11 1 -16 6 -13 14 3 8 1 20 -5 28 -8 11 -9 10 -4
-4 4 -13 1 -17 -11 -15 -10 2 -18 -4 -18 -12 -1 -8 -7 -14 -15 -12 -10 3 -9
-3 4 -17 22 -24 19 -30 -17 -37 -18 -3 -29 1 -36 13 -8 16 -12 16 -37 3 -15
-9 -54 -15 -89 -15 -55 0 -62 -2 -61 -19 1 -11 -4 -21 -11 -23 -8 -3 -11 41
-10 166 1 113 5 167 12 163 5 -3 5 1 -2 9 -8 10 -9 27 -3 54 5 24 5 44 0 49
-6 6 -5 15 1 23 14 16 33 17 23 1 -4 -7 -3 -8 4 -4 6 4 9 13 5 21 -6 18 8 20
26 3 10 -11 12 -10 9 2 -4 22 -20 30 -35 19 -7 -6 -18 -7 -24 -3 -7 4 -9 3 -5
-4 3 -6 3 -13 -2 -16 -4 -2 -9 7 -10 20 -2 21 2 24 17 19 11 -3 22 -1 26 5 3
6 -3 10 -14 10 -14 0 -21 6 -21 20 0 13 7 20 20 20 12 0 20 -6 19 -12 -3 -17
11 -48 21 -48 4 0 11 7 14 16 3 8 2 13 -3 10 -9 -6 -25 23 -17 31 2 2 27 5 55
7 58 2 85 -8 61 -24 -12 -7 -8 -10 15 -10 17 0 37 -4 45 -10 9 -6 17 -5 22 3
13 20 9 24 -24 20 l-33 -4 25 15 c14 8 28 12 32 10 5 -3 8 1 8 8 0 10 2 10 9
-1 6 -9 11 -10 15 -2z"/>
    <path d="M1340 1370 c-13 -9 -13 -10 0 -10 10 0 11 -3 4 -8 -7 -4 -14 -16 -16
-27 -2 -11 -9 -19 -14 -18 -5 1 -10 -8 -11 -20 0 -12 1 -16 4 -9 3 6 9 10 13
7 5 -3 7 -12 3 -20 -3 -9 1 -15 8 -15 11 0 11 -3 -1 -10 -8 -5 -10 -10 -5 -10
15 0 -18 -20 -34 -20 -8 0 -11 7 -8 20 3 11 1 18 -4 14 -5 -3 -9 -16 -9 -30 0
-17 6 -24 19 -24 21 0 51 25 51 42 0 5 7 8 15 4 9 -3 15 0 15 9 0 8 -5 14 -11
13 -6 -2 -14 3 -17 11 -3 9 0 11 9 6 8 -5 11 -5 7 0 -4 4 -3 14 4 22 9 11 7
12 -8 8 -10 -3 -4 2 14 10 30 14 44 35 22 35 -5 0 -10 -4 -10 -10 0 -5 -9 -10
-21 -10 -14 0 -18 4 -12 13 7 11 14 37 10 37 -1 0 -9 -5 -17 -10z"/>
    <path d="M1491 1363 c-1 -7 -8 -13 -16 -13 -10 0 -15 -10 -15 -30 0 -16 5 -30
11 -30 6 0 8 7 5 16 -4 10 1 22 10 29 9 6 14 18 11 26 -4 9 -6 10 -6 2z"/>
    <path d="M1436 1303 c-4 -5 -11 -8 -15 -8 -16 0 -41 -35 -41 -56 0 -18 2 -19
15 -9 8 7 13 16 10 20 -6 10 20 32 28 23 4 -3 9 2 13 11 7 19 1 30 -10 19z"/>
    <path d="M1416 1261 c-4 -6 -1 -11 6 -11 8 0 9 -3 3 -8 -18 -13 -35 -51 -26
-57 11 -6 9 -24 -4 -44 -7 -12 -10 -11 -15 5 -4 10 -2 23 4 27 6 5 -17 6 -50
3 -65 -6 -77 0 -86 39 -3 11 -5 0 -5 -25 0 -25 2 -40 4 -33 3 8 12 9 28 3 12
-5 25 -6 28 -4 20 21 66 -1 67 -31 0 -5 -5 -3 -10 5 -5 8 -10 11 -10 6 0 -5
-8 -3 -17 5 -11 7 -9 3 3 -10 22 -23 22 -23 54 -5 31 19 32 19 47 -1 15 -19
15 -19 9 5 -3 14 -6 30 -6 36 0 7 -9 14 -21 17 -12 3 -18 10 -14 16 8 15 44
-4 51 -27 3 -9 10 -25 15 -34 5 -11 5 -19 -1 -23 -10 -6 12 -59 30 -70 5 -3 3
7 -5 22 -18 34 -19 53 -2 53 7 1 5 6 -5 14 -10 7 -18 22 -18 32 -1 24 -23 54
-40 54 -9 0 -10 4 -2 13 6 7 7 18 3 26 -6 9 -11 10 -15 2z"/>
    <path d="M1661 1438 c-14 -33 -29 -637 -16 -655 14 -18 418 -32 429 -15 4 7
12 156 18 333 10 295 10 322 -6 337 -14 15 -46 17 -216 20 l-200 4 -9 -24z
m109 -53 c0 -29 -19 -52 -33 -39 -9 9 6 54 16 47 6 -4 7 -1 1 8 -5 8 -9 17 -9
21 0 3 -4 10 -8 15 -5 4 -7 1 -5 -7 2 -8 -4 -14 -12 -15 -11 0 -15 -11 -15
-37 0 -49 -11 -35 -18 22 -3 25 -4 39 -1 33 4 -10 10 -10 27 2 19 13 23 13 39
-2 10 -9 18 -30 18 -48z m31 12 c2 -27 2 -28 6 -7 3 14 8 29 13 34 5 5 57 8
116 7 128 -3 135 -7 132 -94 -1 -44 -5 -57 -15 -53 -9 4 -13 -4 -13 -25 0 -18
4 -28 10 -24 6 3 10 13 10 21 0 8 4 14 9 14 14 0 8 -34 -9 -48 -13 -12 -13
-13 2 -8 12 3 15 1 11 -9 -3 -8 -8 -13 -12 -11 -4 3 -7 -4 -7 -14 0 -10 3 -17
6 -15 3 2 5 -14 5 -36 0 -21 -2 -39 -5 -39 -3 0 -6 -11 -6 -25 -1 -16 2 -23
10 -19 6 3 3 -1 -6 -9 -24 -19 -23 -34 2 -42 11 -4 18 -11 15 -16 -4 -5 -15
-4 -28 3 -19 10 -21 9 -9 -4 8 -10 9 -19 3 -22 -5 -4 -17 4 -25 16 -15 21 -15
21 -13 -10 2 -27 5 -31 22 -26 33 10 37 10 42 -3 3 -7 -2 -13 -11 -13 -9 0
-16 -5 -16 -11 0 -5 4 -8 9 -4 12 7 24 -12 17 -24 -3 -5 -31 2 -62 14 -32 13
-63 21 -71 18 -7 -3 -13 1 -13 10 0 24 11 47 20 42 5 -3 6 5 2 17 l-5 22 -10
-22 c-6 -12 -13 -22 -18 -22 -4 0 -5 -9 -2 -20 5 -18 0 -20 -49 -20 -29 0 -81
-7 -113 -16 -33 -9 -65 -16 -72 -17 -7 0 -10 -4 -7 -9 3 -4 0 -8 -5 -8 -14 0
-14 27 -1 35 5 3 9 43 8 88 -1 85 11 122 42 131 9 2 6 4 -7 5 -13 0 -23 6 -23
12 0 5 5 7 10 4 6 -3 10 -1 10 4 0 6 -7 11 -15 11 -10 0 -15 10 -15 28 0 15 3
22 8 15 4 -6 6 22 6 62 -2 61 1 72 15 71 12 -1 16 7 15 35 -1 23 3 36 11 36 9
0 10 -8 5 -29 -6 -18 -5 -30 3 -35 33 -21 57 6 47 53 -4 18 -5 35 -2 38 11 11
22 -7 23 -37z m74 -531 c146 -5 160 -7 166 -25 4 -11 2 -25 -4 -34 -10 -12
-36 -13 -170 -5 -111 6 -163 6 -172 -2 -9 -7 -16 -6 -24 4 -9 10 -9 16 -1 21
8 5 8 11 1 19 -13 16 7 38 29 31 8 -2 87 -7 175 -9z"/>
    <path d="M1869 1280 l-24 -21 54 7 c38 4 52 3 47 -5 -4 -6 -5 -11 -2 -11 3 0
10 8 15 18 7 14 6 18 -7 19 -9 1 -26 4 -38 8 -13 4 -28 -1 -45 -15z"/>
    <path d="M2010 1230 c0 -22 5 -40 10 -40 6 0 9 18 8 40 -4 52 -18 52 -18 0z"/>
    <path d="M1877 1193 c-4 -3 -2 -12 5 -20 8 -10 8 -12 -4 -8 -8 3 -21 -1 -28
-9 -7 -9 -16 -13 -21 -10 -5 3 -9 -3 -9 -12 0 -14 3 -15 12 -6 16 16 48 15 48
-1 0 -7 -18 -21 -40 -31 -22 -10 -38 -22 -35 -27 4 -5 0 -9 -7 -9 -7 0 -19 -9
-26 -20 -11 -19 -10 -20 30 -21 24 0 82 -4 131 -7 70 -6 87 -4 87 6 0 17 -63
82 -79 82 -20 0 -12 -17 21 -43 17 -15 28 -30 24 -34 -4 -4 -11 -1 -17 7 -8
13 -10 13 -19 0 -7 -11 -10 -11 -10 -2 0 7 -5 10 -11 6 -6 -3 -15 0 -20 7 -6
10 -9 11 -9 2 0 -18 -21 -16 -49 3 -21 15 -21 18 -7 26 9 5 21 6 28 2 8 -5 9
-2 5 10 -5 14 -3 17 8 12 18 -6 45 2 45 15 0 5 -7 9 -15 9 -17 0 -19 9 -6 28
6 10 10 8 14 -8 4 -17 12 -21 39 -18 27 2 32 0 30 -14 -2 -13 4 -18 20 -17 22
0 22 1 3 9 -11 5 -14 9 -7 9 7 1 12 14 11 34 0 26 -2 28 -8 12 -5 -11 -6 -24
-3 -29 3 -5 0 -6 -7 -2 -6 4 -9 12 -6 17 4 5 1 17 -5 26 -9 15 -11 15 -7 2 5
-16 -9 -39 -25 -39 -10 0 -48 41 -48 52 0 5 5 6 10 3 6 -3 10 -1 10 4 0 12
-43 15 -53 4z"/>
    <path d="M1747 1156 c-17 -18 -17 -58 1 -64 15 -5 16 24 2 33 -8 5 -7 11 1 21
15 18 39 18 39 -1 0 -8 -7 -15 -15 -15 -8 0 -12 -6 -9 -14 3 -8 13 -12 23 -9
13 3 16 12 13 34 -5 32 -30 39 -55 15z"/>
    <path d="M1687 854 c3 -8 0 -21 -6 -28 -10 -12 -9 -14 5 -12 21 3 29 42 9 50
-9 3 -12 0 -8 -10z"/>
    <path d="M2006 853 c-3 -3 -6 -17 -6 -30 0 -21 2 -22 20 -11 18 11 18 13 4 17
-13 2 -14 5 -4 11 7 4 8 10 2 13 -5 4 -12 4 -16 0z"/>
    <path d="M273 1391 c-2 -23 -1 -24 7 -6 9 18 9 18 7 -5 -3 -31 -20 -30 -29 2
-5 18 -6 16 -5 -10 1 -33 10 -45 35 -48 10 -2 11 1 1 12 -6 8 -9 15 -5 15 3 1
10 2 15 3 5 0 13 5 18 10 5 5 2 6 -5 1 -10 -5 -13 0 -10 20 2 19 -2 29 -12 30
-11 2 -16 -6 -17 -24z"/>
    <path d="M220 1381 c0 -16 5 -33 10 -36 6 -4 10 6 10 24 0 16 -4 33 -10 36 -6
4 -10 -6 -10 -24z"/>
    <path d="M882 1394 c-17 -18 -15 -31 5 -38 14 -6 12 -10 -12 -26 -17 -11 -36
-18 -42 -15 -24 9 -43 -7 -43 -36 0 -16 5 -29 11 -29 6 0 9 -7 6 -14 -4 -10
-1 -13 9 -9 8 3 14 -1 14 -10 0 -9 3 -23 7 -33 5 -13 3 -15 -8 -9 -11 7 -12 6
-2 -6 18 -23 11 -92 -12 -111 -14 -12 -22 -13 -27 -5 -5 8 -8 8 -8 1 0 -20 12
-22 39 -6 27 15 30 14 57 -7 16 -12 32 -30 36 -39 5 -14 7 -14 7 3 1 12 -4 26
-11 33 -7 7 -9 12 -4 12 4 0 -7 13 -25 30 -18 16 -30 33 -25 37 4 4 11 1 16
-7 5 -8 12 -12 15 -8 4 4 -3 20 -15 37 -14 18 -21 38 -17 51 4 14 -3 28 -20
44 -29 27 -28 61 2 61 24 1 45 13 66 40 13 16 14 25 5 46 -9 22 -13 24 -24 13z"/>
    <path d="M717 1389 c12 -7 24 -21 27 -33 2 -12 4 -8 3 9 -2 24 -7 30 -27 32
-25 3 -25 3 -3 -8z"/>
    <path d="M940 1390 c-1 -8 -3 -25 -6 -37 -5 -30 7 -29 37 3 24 27 24 27 2 22
-15 -4 -23 -1 -26 11 -4 13 -5 13 -7 1z"/>
    <path d="M817 1370 c-23 -33 -22 -35 18 -37 19 -2 35 2 35 7 0 6 -4 10 -8 10
-5 0 -13 10 -19 22 l-9 22 -17 -24z"/>
    <path d="M333 1333 c-18 -19 -30 -40 -27 -44 3 -5 0 -9 -5 -9 -6 0 -11 -5 -11
-11 0 -8 5 -7 15 1 9 7 13 15 11 17 -3 3 4 15 15 27 19 19 43 57 37 55 -2 0
-18 -16 -35 -36z"/>
    <path d="M983 1339 c-24 -29 -30 -49 -13 -49 6 0 10 5 10 10 0 6 6 10 14 10 7
0 20 8 27 17 12 15 12 16 -3 10 -23 -8 -23 2 -2 18 13 9 13 12 3 12 -8 0 -24
-13 -36 -28z"/>
    <path d="M270 1300 c0 -5 -7 -7 -15 -4 -17 7 -19 -4 -5 -26 9 -13 10 -13 10 0
0 13 1 13 10 0 8 -12 10 -9 10 13 0 15 -2 27 -5 27 -3 0 -5 -4 -5 -10z"/>
    <path d="M240 1240 c10 -18 7 -24 -12 -21 -5 0 -7 -18 -7 -41 2 -35 3 -37 6
-13 7 43 21 59 41 43 9 -7 6 2 -7 20 -25 36 -38 43 -21 12z"/>
    <path d="M295 1210 c-3 -5 -1 -18 5 -29 7 -13 7 -22 0 -26 -6 -3 -14 4 -19 17
-13 31 -14 6 -1 -26 13 -35 35 -24 36 19 0 19 -3 32 -8 29 -4 -3 -8 0 -8 5 0
16 20 13 26 -4 6 -15 34 -21 34 -7 0 25 -52 43 -65 22z"/>
    <path d="M256 1118 c8 -39 19 -54 28 -39 4 6 2 11 -3 11 -6 0 -11 11 -11 24 0
14 -4 28 -10 31 -6 4 -7 -6 -4 -27z"/>
    <path d="M350 966 c0 -18 14 -33 36 -40 24 -7 54 1 54 16 0 6 -7 8 -15 4 -8
-3 -15 -1 -15 4 0 6 -7 10 -15 10 -8 0 -15 4 -15 8 0 5 -7 9 -15 9 -8 0 -15
-5 -15 -11z"/>
    <path d="M979 736 c-2 -2 -71 -6 -152 -8 -83 -3 -152 -9 -158 -15 -7 -7 -7
-66 0 -194 6 -101 14 -242 18 -312 4 -90 10 -133 20 -143 12 -12 48 -13 206
-8 106 4 198 11 205 17 9 7 11 29 8 76 -3 36 -8 113 -11 171 -21 451 -14 420
-89 420 -23 0 -45 -2 -47 -4z m-6 -48 c-2 -5 3 -8 11 -8 9 0 16 5 16 10 0 6 5
10 11 10 8 0 8 -5 -1 -15 -7 -8 -20 -15 -30 -15 -10 0 -21 -7 -24 -16 -3 -9
-11 -12 -18 -8 -8 5 -9 2 -5 -9 3 -10 2 -17 -3 -17 -6 0 -10 5 -10 11 0 5 -4
8 -9 4 -6 -3 -8 -15 -6 -26 2 -11 -2 -22 -9 -25 -8 -3 -13 -13 -12 -22 2 -9
-3 -27 -11 -39 -8 -12 -12 -28 -8 -35 4 -7 -4 0 -17 15 l-24 29 -24 -20 -25
-20 26 -11 c24 -9 26 -14 23 -53 -4 -42 -4 -42 12 -20 9 12 27 22 40 22 29 0
42 20 20 32 -9 5 -16 18 -16 30 0 15 5 19 20 15 25 -7 34 7 15 23 -18 15 -19
34 -2 48 17 14 84 -14 90 -39 6 -22 1 -26 -37 -33 -16 -3 -31 -8 -35 -12 -3
-4 2 -4 12 -1 23 8 22 -5 -2 -20 -10 -6 -20 -20 -23 -30 -4 -15 2 -18 39 -21
26 -1 43 2 43 9 0 6 -7 8 -16 5 -9 -4 -26 -4 -36 0 -19 6 -19 7 -2 25 20 23
44 25 44 4 0 -8 5 -15 10 -15 6 0 8 11 6 24 -2 14 1 30 8 36 8 5 12 24 10 40
-2 17 0 30 5 30 4 0 7 14 6 30 -2 35 12 41 18 8 3 -13 3 -4 1 20 -2 25 0 41 6
37 5 -3 7 -50 6 -105 -2 -55 0 -100 5 -100 5 0 8 -22 7 -50 -2 -33 -7 -50 -15
-50 -7 0 -13 -5 -13 -10 0 -6 6 -9 13 -8 7 2 11 -6 10 -19 -2 -13 3 -23 10
-24 6 0 -1 -6 -17 -14 -28 -12 -32 -11 -65 25 -29 30 -44 37 -78 39 -33 1 -43
-2 -43 -14 0 -10 10 -15 33 -15 32 0 62 -16 102 -53 11 -10 32 -25 48 -33 15
-8 27 -16 27 -19 0 -9 -51 -55 -61 -55 -6 0 -7 5 -4 10 4 6 -9 11 -32 11 l-38
2 40 7 c36 6 32 7 -27 9 -40 0 -68 -3 -68 -9 0 -5 11 -10 25 -10 16 0 25 -6
25 -15 0 -8 -7 -15 -15 -15 -8 0 -15 5 -15 10 0 6 -7 10 -16 10 -8 0 -12 -4
-9 -10 3 -5 -3 -10 -15 -10 -12 0 -19 4 -16 8 2 4 -5 9 -17 9 -17 2 -19 0 -7
-7 13 -8 12 -10 -2 -10 -10 0 -18 5 -18 10 0 6 -7 10 -16 10 -8 0 -12 5 -9 10
4 6 26 9 51 6 24 -2 44 0 44 5 0 5 -22 9 -50 9 -27 0 -50 -4 -50 -9 0 -19 -45
-20 -64 -1 -11 11 -18 21 -15 23 2 1 37 24 77 50 78 51 92 68 72 92 -10 12
-15 12 -35 -1 -21 -14 -45 -61 -24 -48 5 3 9 0 9 -5 0 -6 -9 -11 -19 -11 -10
0 -21 -6 -24 -14 -8 -21 -49 -42 -46 -24 1 7 0 45 -1 83 -1 49 -4 62 -9 45 -5
-14 -8 24 -8 88 1 61 3 112 6 113 36 5 51 4 51 -3 0 -5 5 -6 11 -3 19 13 -2
21 -61 24 -10 1 -15 12 -15 36 0 41 12 47 17 8 2 -22 8 -28 27 -27 14 0 26 5
29 12 2 7 -6 12 -22 12 -30 0 -27 20 7 36 25 11 227 13 220 2z m42 -55 c-2
-16 -4 -34 -4 -40 -1 -18 -48 -16 -55 2 -6 17 31 63 51 64 7 1 10 -10 8 -26z
m-174 -135 c1 -7 3 -23 4 -35 1 -12 -1 -20 -6 -17 -4 2 -6 11 -3 18 3 9 -3 17
-15 21 -12 3 -19 11 -16 16 9 13 35 11 36 -3z m252 -327 c5 -21 -9 -41 -30
-41 -7 0 -13 9 -13 20 0 11 5 20 11 20 6 0 9 -7 6 -14 -4 -10 -1 -13 8 -9 11
4 12 10 4 24 -5 11 -6 19 -1 19 6 0 12 -9 15 -19z m-303 0 c0 -5 -13 -11 -30
-14 -28 -6 -43 -27 -19 -27 6 0 8 -9 4 -20 -4 -12 -2 -20 5 -20 8 0 11 11 8
30 l-5 30 76 1 c42 0 106 1 142 3 58 2 67 0 75 -18 5 -12 15 -22 22 -22 23 -3
24 -4 12 -19 -12 -15 -35 -11 -25 5 3 5 0 12 -6 16 -8 4 -9 3 -5 -4 5 -9 -7
-12 -41 -13 -43 -1 -45 -2 -18 -9 25 -7 21 -8 -22 -7 -29 0 -53 5 -53 10 0 6
-8 3 -18 -6 -23 -21 -29 -21 -29 -3 0 8 7 12 16 9 13 -4 14 -3 2 5 -12 9 -12
13 -2 26 8 9 9 16 4 16 -5 0 -15 -11 -21 -24 -8 -18 -19 -24 -49 -25 -21 -1
-49 -3 -63 -4 -20 -2 -24 3 -26 29 -1 18 1 36 5 41 12 19 61 30 61 14z"/>
    <path d="M775 680 c3 -5 -2 -10 -12 -11 -14 0 -14 -2 5 -9 24 -10 28 -20 11
-37 -7 -7 -6 -12 3 -16 9 -3 14 3 15 17 2 34 -7 66 -18 66 -6 0 -7 -4 -4 -10z"/>
    <path d="M780 421 c-21 -6 -22 -8 -7 -14 9 -3 17 -13 17 -22 0 -8 5 -15 10
-15 6 0 10 14 10 30 0 17 -1 30 -2 29 -2 -1 -14 -4 -28 -8z"/>
    <path d="M981 396 c-10 -12 -6 -21 18 -48 l30 -33 -1 43 c-1 39 -3 41 -13 23
-6 -12 -14 -19 -18 -15 -3 4 -2 15 4 25 11 22 -3 26 -20 5z"/>
    <path d="M1184 727 c-12 -7 -14 -62 -14 -332 0 -310 1 -325 19 -335 23 -12
390 -13 409 -1 9 6 12 81 10 337 l-3 329 -203 5 c-112 3 -210 1 -218 -3z m212
-33 c48 -23 49 -30 3 -28 -21 1 -36 -2 -33 -7 3 -5 -3 -9 -13 -9 -13 0 -15 -2
-5 -9 17 -10 64 -2 56 10 -3 5 1 9 10 9 8 0 16 -4 18 -9 2 -5 17 -13 33 -17
l30 -7 -33 31 c-38 36 -35 52 11 51 27 0 29 -2 12 -9 -18 -8 -17 -9 7 -9 14
-1 29 5 31 12 3 6 6 3 6 -8 1 -16 3 -17 10 -6 8 12 11 12 24 -1 13 -12 16 -52
17 -227 0 -139 -3 -211 -10 -211 -5 0 -10 -4 -10 -10 0 -5 7 -7 15 -4 21 9 19
-10 -5 -31 -27 -24 -52 -13 -44 20 4 16 2 25 -6 25 -6 0 -8 5 -4 12 5 7 0 9
-14 6 -14 -4 -19 -2 -15 8 2 7 10 15 16 17 7 2 3 2 -8 0 -16 -3 -126 -4 -154
-1 -25 2 -41 -4 -41 -17 0 -11 13 -15 53 -16 92 -2 160 -13 165 -28 3 -9 0
-11 -8 -6 -10 6 -12 3 -8 -11 4 -15 0 -20 -14 -21 -16 -2 -17 1 -7 13 6 8 10
16 8 18 -2 2 -38 6 -79 9 -41 4 -88 8 -103 10 -19 3 -35 -2 -47 -15 -12 -14
-25 -18 -39 -13 -20 6 -21 12 -20 187 1 191 5 207 46 202 13 -1 21 2 17 7 -3
5 2 12 10 15 20 8 21 21 1 21 -8 0 -15 -4 -15 -8 0 -4 -13 -11 -28 -17 -23 -8
-29 -7 -29 4 0 8 7 13 15 12 8 -2 17 3 19 10 3 6 -2 12 -11 12 -9 0 -16 6 -16
14 0 16 43 26 85 19 23 -3 27 -2 15 6 -25 18 47 13 86 -5z m14 -484 c9 -6 17
-5 21 1 4 7 8 6 11 -3 4 -10 -5 -13 -32 -13 -21 0 -36 3 -34 7 2 3 -2 9 -8 11
-7 3 -4 6 7 6 11 0 27 -3 35 -9z m10 -32 c90 -1 108 -4 127 -21 12 -11 20 -24
17 -29 -3 -5 -11 -3 -17 6 -13 16 -157 29 -157 14 0 -5 5 -6 10 -3 6 3 10 -1
10 -9 0 -9 9 -16 20 -16 11 0 20 5 20 10 0 6 18 10 40 10 36 0 40 -2 40 -26 0
-23 2 -25 15 -14 20 17 32 5 15 -15 -9 -11 -16 -12 -26 -4 -8 6 -70 10 -171 8
l-158 -2 0 24 c0 13 3 32 8 42 4 9 4 17 -1 17 -4 0 -8 8 -8 18 0 17 4 18 56 5
30 -8 102 -14 160 -15z"/>
    <path d="M1337 600 c-9 -14 -17 -28 -17 -32 0 -7 55 -20 102 -23 60 -4 68 -5
68 -16 0 -7 -26 -8 -82 -3 l-83 7 25 -21 c14 -11 27 -16 28 -11 5 11 52 12 52
0 0 -15 69 13 73 31 3 10 1 18 -4 18 -5 0 -9 5 -9 11 0 6 8 8 18 5 16 -6 16
-5 0 7 -10 8 -16 16 -14 18 2 2 -2 10 -10 17 -12 11 -14 10 -15 -5 0 -16 -1
-16 -9 2 -7 17 -9 17 -9 3 -1 -10 -7 -18 -13 -19 -7 -1 -3 -4 10 -7 25 -8 27
-29 2 -24 -8 1 -33 4 -55 6 -22 2 -43 4 -47 5 -5 1 -8 6 -8 12 0 7 13 8 39 4
32 -5 39 -3 43 12 4 15 -1 19 -23 18 -15 0 -25 -3 -22 -7 2 -5 0 -8 -6 -8 -5
0 -11 5 -13 12 -3 7 -11 2 -21 -12z"/>
    <path d="M1509 483 c-1 -5 -2 -12 -4 -18 -1 -5 -3 -14 -4 -20 -1 -5 -5 -4 -10
4 -8 12 -12 13 -25 1 -14 -11 -16 -10 -10 6 5 16 3 15 -14 -4 -13 -14 -23 -19
-27 -12 -12 19 -49 29 -63 17 -10 -8 -12 -7 -10 3 2 9 -8 14 -29 15 -18 1 -30
-2 -27 -6 3 -5 0 -9 -5 -9 -21 0 -10 -40 15 -57 l26 -17 -26 -23 c-15 -13 -36
-23 -46 -23 -10 0 -22 -5 -26 -12 -4 -6 -3 -8 4 -4 6 3 18 -1 26 -10 14 -14
16 -14 16 0 0 39 98 63 160 38 29 -11 42 -6 20 8 -13 8 -12 10 3 10 16 0 21
-9 15 -27 -4 -11 -138 -10 -138 0 0 4 -6 2 -14 -5 -12 -11 -11 -14 8 -20 34
-10 158 -9 151 1 -3 5 -1 12 5 16 6 4 8 11 5 16 -4 5 1 9 9 9 9 0 16 8 16 18
0 14 -2 15 -10 2 -9 -13 -11 -13 -19 0 -11 17 4 31 25 23 9 -3 12 9 12 41 0
25 -2 46 -4 46 -2 0 -5 -3 -5 -7z m-160 -44 c23 -17 37 -20 68 -15 83 14 90
14 90 0 0 -7 -4 -11 -9 -8 -4 3 -22 -4 -38 -16 -24 -17 -36 -19 -62 -13 -18 5
-42 9 -53 8 -11 0 -27 8 -36 17 -9 10 -19 14 -23 10 -4 -4 -6 0 -4 8 7 34 29
37 67 9z"/>
    <path d="M1233 173 c4 -6 1 -16 -6 -22 -15 -12 -16 -59 -1 -51 5 3 9 15 8 28
0 21 4 22 65 22 76 0 77 5 2 14 -29 4 -58 9 -64 13 -5 3 -7 1 -4 -4z"/>
    <path d="M1656 714 c-3 -9 -6 -131 -6 -273 -1 -141 -2 -281 -4 -311 -2 -30 1
-61 6 -67 15 -18 409 -18 426 -1 7 7 12 36 12 66 0 43 -4 58 -22 73 -11 11
-25 19 -29 19 -4 0 -27 27 -50 60 -23 33 -46 60 -51 60 -5 0 -6 -4 -3 -10 3
-5 1 -10 -5 -10 -7 0 -9 8 -5 19 4 14 -3 24 -28 40 -36 22 -73 28 -62 11 4 -6
11 -8 16 -5 5 4 9 1 9 -4 0 -6 6 -10 13 -8 6 1 11 -4 9 -12 -2 -8 3 -11 11 -8
13 5 16 -4 18 -44 0 -9 7 -16 14 -16 8 0 11 5 8 10 -3 6 -1 7 6 3 6 -4 9 -17
6 -29 -2 -12 -2 -16 1 -9 5 10 9 10 20 1 8 -6 11 -16 7 -22 -4 -6 -1 -7 7 -2
10 6 12 4 7 -8 -3 -9 -3 -16 1 -16 4 1 14 1 22 0 13 -1 13 -3 1 -10 -13 -8
-13 -12 -1 -26 12 -14 12 -18 -1 -26 -18 -11 -29 -11 -29 0 0 4 -18 7 -41 5
-51 -3 -86 9 -92 33 -4 17 -5 17 -6 1 0 -10 -6 -18 -12 -18 -5 0 -7 -5 -4 -10
8 -12 8 -12 -33 -1 -18 6 -30 6 -27 1 6 -9 -24 -11 -62 -4 -18 3 -22 12 -25
59 -2 37 1 56 9 59 7 3 15 1 17 -3 12 -19 53 2 71 36 l19 35 23 -27 c28 -32
32 -11 7 40 -14 30 -20 34 -49 31 -38 -3 -88 -32 -80 -46 4 -6 12 -10 18 -10
8 0 7 3 -2 9 -11 7 -10 11 6 20 11 5 23 7 27 4 3 -3 6 -1 6 5 0 7 7 12 16 12
12 0 14 -5 9 -17 -4 -10 -10 -28 -12 -41 -4 -18 -8 -20 -19 -11 -10 8 -14 8
-14 0 0 -6 5 -11 10 -11 6 0 10 -4 10 -9 0 -5 -11 -8 -25 -8 -14 0 -25 4 -25
9 0 5 -4 7 -9 3 -11 -6 -34 29 -25 38 8 7 5 303 -3 323 -4 12 -3 15 5 10 7 -4
12 -20 12 -37 0 -19 5 -29 15 -29 8 0 15 7 15 16 0 8 -4 12 -10 9 -6 -4 -10 7
-10 24 0 17 -5 31 -11 31 -5 0 -7 5 -4 10 4 6 10 8 15 5 4 -3 11 1 14 7 4 8 8
9 11 3 3 -5 24 -9 47 -8 24 0 46 -4 50 -10 6 -9 8 -9 8 0 0 6 11 10 25 8 14
-1 25 2 25 8 0 6 7 2 15 -9 8 -10 15 -14 15 -8 0 14 62 13 72 -1 5 -7 8 -6 8
0 0 17 42 16 68 -1 13 -9 21 -22 18 -29 -3 -8 -1 -17 5 -21 6 -3 7 -13 4 -23
-11 -27 -15 -86 -4 -70 7 12 9 12 9 -1 0 -9 -8 -26 -17 -40 -16 -22 -16 -23 0
-17 15 5 16 3 7 -12 -13 -25 -8 -257 6 -271 15 -15 27 490 12 507 -7 8 -68 12
-218 13 -183 0 -208 -2 -214 -16z m203 -570 c88 -2 149 0 156 6 9 7 16 6 24
-4 8 -9 8 -16 2 -20 -5 -4 -12 -2 -16 4 -4 6 -11 8 -16 4 -5 -3 -7 -10 -3 -15
3 -5 9 -7 14 -4 5 3 11 1 15 -5 4 -6 12 -7 18 -3 7 3 3 -3 -7 -15 -12 -14 -26
-20 -40 -17 -12 3 -91 6 -176 9 -103 2 -155 7 -158 15 -5 15 25 14 31 -1 3 -7
6 -1 6 14 1 27 -14 46 -27 33 -3 -3 0 -10 8 -15 13 -8 12 -10 -2 -10 -10 0
-18 6 -18 13 0 20 12 28 29 21 9 -4 81 -8 160 -10z"/>
    <path d="M1838 123 c17 -2 47 -2 65 0 17 2 3 4 -33 4 -36 0 -50 -2 -32 -4z"/>
    <path d="M301 708 c-63 -4 -119 -12 -124 -17 -14 -14 30 -620 46 -639 10 -12
43 -14 202 -8 124 5 194 11 202 19 10 9 7 79 -11 323 -12 170 -26 316 -30 323
-8 13 -79 13 -285 -1z m-66 -28 c-11 -18 18 -20 95 -6 62 10 76 10 78 -1 2 -7
8 -13 13 -13 6 0 7 -5 3 -12 -4 -7 -3 -8 4 -4 7 4 12 2 12 -4 0 -6 5 -8 10 -5
6 3 10 1 10 -5 0 -6 5 -8 10 -5 6 3 10 11 10 16 0 6 -4 7 -10 4 -5 -3 -10 -1
-10 6 0 7 -3 9 -7 6 -3 -4 -12 -2 -20 4 -17 15 -18 35 0 22 13 -10 24 -10 49
1 9 4 29 6 45 4 28 -3 28 -4 33 -88 4 -58 7 -75 11 -55 4 17 6 -10 6 -60 0
-49 5 -109 11 -132 7 -23 11 -80 8 -132 -2 -50 0 -94 5 -97 5 -3 5 -13 -1 -23
-5 -10 -7 -21 -4 -24 3 -3 -2 -4 -13 -2 -10 2 -85 4 -166 4 -89 1 -146 5 -142
10 3 5 1 12 -5 16 -5 3 -10 1 -10 -5 0 -6 -7 -4 -16 5 -16 15 -16 18 -1 33 15
15 16 14 12 -7 -3 -17 -1 -20 8 -13 21 17 77 18 87 2 8 -13 10 -13 10 1 0 9
-9 28 -20 42 -21 26 -28 63 -10 52 6 -3 10 -1 10 4 0 6 -7 11 -15 11 -17 0
-21 -45 -5 -55 6 -3 10 -12 10 -19 0 -15 -30 -17 -47 -3 -7 5 -13 6 -13 1 0
-5 -5 -2 -10 6 -7 11 -10 11 -10 2 0 -7 -5 -10 -11 -6 -7 4 -9 23 -5 51 3 24
2 42 -2 39 -4 -2 -8 26 -10 62 -4 117 -8 176 -15 222 -4 31 -4 37 2 20 9 -24
9 -23 10 8 1 18 -2 31 -6 29 -5 -3 -8 12 -8 34 0 21 3 39 8 39 4 0 7 -12 7
-28 0 -33 35 -61 54 -42 6 6 7 11 1 10 -19 -4 -35 0 -35 9 0 5 9 7 20 4 11 -3
20 0 20 6 0 6 -11 11 -25 11 -17 0 -23 4 -19 14 3 8 0 17 -5 21 -11 6 -6 25 5
25 3 0 2 -5 -1 -10z"/>
    <path d="M270 650 c-16 -5 -19 -8 -8 -9 9 -1 22 -9 27 -18 11 -19 11 -19 15
15 3 24 3 24 -34 12z"/>
    <path d="M424 612 c9 -26 -16 -50 -58 -58 -21 -3 -33 -11 -32 -20 3 -17 16
-31 16 -16 0 18 49 10 67 -10 15 -17 15 -20 -2 -38 -18 -20 -17 -20 9 -20 28
0 93 56 81 69 -3 3 -17 -9 -31 -27 -14 -18 -30 -32 -36 -32 -7 0 -6 5 2 15 9
11 9 22 0 49 -12 37 -5 81 11 71 5 -4 9 -2 9 2 0 5 -9 14 -21 21 -19 12 -20
11 -15 -6z"/>
    <path d="M220 503 c0 -6 8 -19 17 -28 16 -16 17 -16 30 1 19 26 16 36 -7 22
-17 -11 -22 -10 -30 2 -6 9 -10 10 -10 3z"/>
    <path d="M248 444 c-5 -4 -8 -17 -8 -30 0 -15 5 -21 17 -20 18 3 31 26 15 26
-6 0 -12 7 -14 16 -2 9 -6 12 -10 8z"/>
    <path d="M330 430 c0 -8 16 -35 36 -60 34 -43 36 -48 31 -103 -4 -41 -11 -63
-24 -72 -13 -11 -14 -14 -4 -15 12 0 12 -3 3 -12 -24 -24 -10 -28 87 -28 l99
0 7 36 c5 27 2 41 -11 55 -21 24 -34 24 -34 2 0 -14 2 -15 9 -4 13 19 34 -23
26 -50 -5 -16 -10 -18 -21 -8 -11 9 -12 15 -3 25 9 11 7 14 -9 14 -22 0 -112
101 -112 125 0 8 11 26 24 40 25 27 40 65 26 65 -5 0 -12 -4 -15 -10 -9 -14
-89 -12 -103 2 -9 9 -12 9 -12 -2z m114 -200 c26 -10 36 -43 16 -55 -15 -9
-43 23 -36 41 5 12 2 15 -9 10 -9 -3 -13 -2 -10 4 8 12 8 12 39 0z"/>
    <path d="M300 387 c-19 -16 -24 -43 -9 -53 9 -5 10 -2 6 9 -4 11 -1 17 8 17 7
0 17 5 21 12 5 7 3 8 -6 3 -10 -6 -12 -4 -7 8 8 20 7 20 -13 4z"/>
    <path d="M470 383 c0 -6 7 -18 15 -27 8 -8 15 -19 15 -25 0 -6 5 -11 10 -11
16 0 11 12 -15 45 -14 17 -25 25 -25 18z"/>
    <path d="M1701 674 c-1 -12 6 -25 15 -28 8 -3 13 -10 9 -15 -9 -16 13 -23 35
-11 22 12 26 40 8 58 -19 19 -36 14 -41 -10 -4 -23 -4 -23 -15 2 -10 23 -11
24 -11 4z"/>
    <path d="M1913 654 c2 -14 1 -41 -3 -60 -5 -21 -4 -34 2 -34 6 0 7 -8 3 -17
-5 -15 -4 -16 6 -5 15 14 33 16 25 3 -4 -5 2 -7 13 -4 11 3 27 -4 40 -18 20
-22 40 -21 26 1 -7 12 -55 34 -67 32 -5 -1 -8 2 -8 8 0 5 -6 7 -13 4 -11 -4
-14 7 -13 46 1 27 5 50 9 50 5 0 5 5 2 10 -12 20 -27 10 -22 -16z"/>
    <path d="M1956 670 c-2 -8 -9 -30 -15 -49 -6 -19 -8 -32 -5 -28 4 4 13 -1 21
-11 13 -15 13 -14 3 6 -9 18 -8 28 3 46 10 14 12 28 7 37 -8 11 -10 11 -14 -1z"/>
    <path d="M2000 599 l-25 -20 25 6 c14 4 32 13 40 21 24 23 -10 17 -40 -7z"/>
    <path d="M1859 588 c-1 -7 -2 -21 -2 -31 0 -13 -3 -15 -10 -8 -19 19 -39 13
-28 -8 6 -10 7 -21 3 -25 -3 -4 0 -11 7 -15 8 -5 10 -14 6 -21 -6 -9 -10 -9
-16 1 -8 11 -11 11 -20 -3 -5 -10 -22 -18 -36 -18 -23 0 -24 2 -12 18 13 15
12 16 -3 3 -10 -7 -15 -17 -12 -22 8 -14 -12 -10 -25 4 -6 8 -7 18 -3 22 4 5
2 5 -5 1 -7 -4 -11 -20 -10 -35 1 -18 6 -26 12 -21 6 4 29 11 53 15 23 4 42
12 42 18 0 8 3 8 11 0 6 -6 18 -9 27 -6 10 5 13 2 8 -6 -5 -7 -14 -10 -22 -7
-8 3 -14 1 -14 -5 0 -6 -4 -7 -10 -4 -5 3 -10 2 -10 -3 0 -18 13 -20 35 -6 18
12 29 13 44 5 15 -9 23 -7 35 5 9 8 16 19 16 24 0 4 9 10 21 13 12 3 18 10 14
17 -5 7 -18 -1 -39 -25 l-32 -36 -22 24 c-27 29 -17 43 15 22 23 -15 23 -15
23 24 0 28 -6 43 -17 50 -15 9 -16 12 -4 20 7 5 10 14 7 20 -10 15 -26 14 -27
-1z m21 -62 c0 -20 -13 -27 -30 -15 -13 8 -13 10 0 19 21 14 30 12 30 -4z"/>
    <path d="M2000 560 c-13 -8 -13 -10 2 -10 9 0 23 -3 32 -6 11 -4 16 -1 16 10
0 18 -27 21 -50 6z"/>
    <path d="M1966 520 c5 -8 7 -26 5 -39 -2 -15 2 -22 10 -19 21 7 21 24 -1 49
-12 13 -18 17 -14 9z"/>
  </g>
</svg>
